<svg width="600" height="600" viewBox="0 0 600 600" fill="none" xmlns="http://www.w3.org/2000/svg">
<g clip-path="url(#clip0_303_592)">
<path d="M499.5 543.3C466.8 523.5 416.7 518.1 394.5 507C379.8 499.5 367.2 492.9 367.8 453.6C368.4 414.3 373.5 326.4 373.5 326.4H226.2C226.2 326.4 231 414.6 231.9 453.6C232.8 492.6 219.3 500.4 205.2 507C183 517.5 132.9 523.2 100.2 543.3C67.8001 563.1 70.2001 600 70.2001 600V659.1H530.1V600C529.8 600 532.2 563.1 499.5 543.3Z" fill="#FBB98F"/>
<path opacity="0.65" d="M373.5 326.7H226.2C226.5 332.1 231 415.8 231.9 453.6C231.9 459 231.9 463.8 231.6 468.3C251.7 490.2 275.4 504 300 504C324.6 504 348.3 490.2 368.4 468.3C368.1 464.1 367.8 459 367.8 453.6C368.4 415.5 373.2 332.1 373.5 326.7V326.7Z" fill="url(#paint0_linear_303_592)"/>
<path d="M236.1 470.4C237.6 484.8 241.2 498.6 245.4 512.1C247.8 519 250.2 525.9 253.2 532.8C255.6 538.8 258.3 545.4 262.5 550.5C263.4 551.7 265.5 550.5 265.2 549C263.7 542.4 260.4 536.1 258 529.8C255.3 523.2 252.9 516.6 250.5 510C246 496.8 242.1 483.3 238.2 470.1C237.6 468.9 235.8 469.2 236.1 470.4V470.4ZM360 467.4C356.1 492 348.3 515.7 343.8 540C343.5 541.2 345 541.5 345.6 540.6C354.9 517.5 357.9 492.3 360.9 467.7C360.6 467.1 360 467.1 360 467.4V467.4ZM282.6 503.1C279.9 513.9 288.3 528.9 301.2 525.9C302.7 525.6 302.4 523.5 301.2 522.9C297 521.4 292.5 520.2 289.5 516.6C286.2 513 285 507.9 285.3 503.1C285.3 501.9 282.9 501.6 282.6 503.1V503.1Z" fill="#FFA573"/>
<path d="M531.9 659.1C531.6 639.3 531 619.8 531 600L530.1 599.1C530.4 599.1 530.4 599.1 530.7 599.4C531 599.7 531 600 531 599.7V595.5C531 594 530.7 592.8 530.7 591.3C530.4 588.6 529.8 585.6 529.2 582.9C527.7 577.5 525.9 572.1 523.2 567C518.1 556.8 510 548.4 500.1 542.7C489.3 536.1 477.3 531.3 465.3 527.4C453.3 523.5 441 520.2 429 516.9C417 513.3 404.7 510.3 393.6 504.3C387.9 501.3 382.8 498 379.2 493.5C375.6 488.7 373.5 483 372.3 477C369.9 465 371.1 452.4 371.4 439.8L373.5 402L378 326.4L378.3 322.2H374.1C349.5 322.2 324.9 322.2 300.3 322.5L226.5 323.4H223.8L224.1 326.1C226.5 361.8 228.9 397.5 230.4 433.2C230.7 442.2 231.3 451.2 231 459.9C230.7 468.6 229.8 477.6 226.2 485.7C224.4 489.6 222 493.2 219 496.2C216 499.2 212.1 501.6 208.2 503.4C200.4 507.3 192 510 183.3 512.4C165.9 516.9 148.5 520.8 131.4 526.5C123 529.2 114.3 532.5 106.2 536.7C102.3 538.8 98.0998 540.9 94.1998 543.9C90.2998 546.6 86.9998 549.6 83.6998 553.2C77.3998 560.1 72.8998 568.8 70.1998 577.5C68.6998 582 67.7998 586.5 67.1998 591.3C66.8998 593.7 66.8998 596.1 66.8998 598.5V605.4L66.2998 659.1V663H70.4998L185.4 663.6C223.8 663.9 261.9 663.9 300.3 663.6C338.7 663.3 377.1 663.3 415.2 662.7C453.6 662.1 492 661.2 530.1 660.6H531.9V659.1V659.1ZM300.3 654.3H185.4L74.3998 654.9L74.0998 605.1V598.5C74.0998 596.4 74.0998 594.3 74.3998 592.2C74.6998 588 75.5998 583.8 76.7998 579.6C79.1998 571.5 83.0998 563.7 88.4998 557.1C91.1998 553.8 94.4998 550.8 97.7998 548.4C101.1 545.7 105 543.6 108.9 541.5C116.7 537.3 124.8 534 133.2 531C150 525 167.4 520.8 184.5 515.7C193.2 513.3 201.9 510.6 210 506.4C213.9 504.3 218.1 501.9 221.4 498.6C224.7 495.3 227.4 491.4 229.2 486.9C232.8 478.2 233.7 469.2 234 460.2C234 451.2 233.7 442.2 233.4 433.2L229.5 328.8L300 330C323.1 330.3 346.2 330.3 369.3 330.3C368.1 354 366.9 378 366 401.7C365.4 414.3 365.4 426.9 365.1 439.5C365.1 452.1 364.5 465 367.5 477.9C369 484.2 371.4 490.5 375.9 495.9C380.1 501 386.1 504.6 391.8 507.3C403.5 513 415.8 515.7 428.1 518.7C440.4 521.7 452.7 524.7 464.7 528.6C476.7 532.5 488.4 537 499.2 543.6C508.8 549.3 516.6 557.7 521.7 567.6C524.4 572.4 526.2 577.8 527.4 583.2C528 585.9 528.6 588.6 528.6 591.3C528.9 592.8 528.9 594 528.9 595.5V600L528 657C490.2 656.4 452.7 655.5 414.9 654.9C376.8 654.6 338.4 654.6 300.3 654.3V654.3Z" fill="#FFA573"/>
<path d="M302.4 553.2C299.1 544.2 277.8 529.8 262.8 521.4C247.8 513 241.8 506.7 232.8 495C227.4 484.2 229.8 468.3 229.8 468.3C229.5 454.2 228 439.8 227.1 424.2C202.5 420.9 187.8 435.3 185.1 438C165.6 456.9 175.8 463.5 168 472.5C140.4 478.8 146.7 515.1 135.9 517.5C109.8 523.2 72.3 538.5 63.3 580.5C63.3 580.5 58.5 608.1 58.5 660.6H540.6C540.6 608.1 535.8 580.5 535.8 580.5C526.2 534.9 483 523.5 457.5 516.3C453.3 514.5 458.1 500.7 450 484.8C445.8 476.7 438.3 465.3 422.1 461.4C422.1 461.4 418.5 441.6 405.9 431.7C393.3 421.8 372.3 424.2 372.3 424.2C372.3 424.2 371.4 466.5 371.4 472.5C371.4 482.1 370.8 487.2 366.6 492.3C362.4 497.4 353.4 504 345.9 514.8C338.4 525.6 315.6 537.3 310.8 541.8C306.6 546 302.4 553.2 302.4 553.2V553.2Z" fill="black"/>
<path d="M316.8 562.2C315 564 311.7 572.4 311.4 579.3C311.1 586.2 316.8 613.8 317.7 619.5C318.6 625.2 314.7 641.7 314.7 645C314.7 648.3 323.1 653.4 324 650.1C324.9 646.8 327.6 624.9 324.6 617.4C321.6 609.9 318 587.1 318 582.6C318 578.1 321.3 565.8 322.8 563.1C322.8 563.1 323.4 560.7 321 560.4C318.6 560.1 316.8 562.2 316.8 562.2V562.2Z" fill="#D6D6D6"/>
<path d="M286.8 560.4L287.1 559.8C287.1 559.8 292.5 555.9 292.8 562.5C292.8 562.5 289.2 570.9 289.2 576.9C289.2 582.9 295.8 612.6 296.7 619.2C297.6 625.8 288.6 650.4 287.4 650.7C286.2 651 281.1 648 279.6 646.8C278.4 645.6 287.1 626.1 288 617.1C288.9 608.4 286.8 591 284.4 580.5C282 570 285.6 562.8 286.8 560.7V560.4V560.4Z" fill="#D6D6D6"/>
<path d="M544.2 612.9C543.6 605.1 543 597.3 542.1 589.2L541.5 583.2L541.2 580.2V579.3C541.2 579 541.2 578.7 540.9 578.4L540.6 576.9C539.7 572.7 538.5 568.8 537 564.9C533.7 557.1 529.2 549.9 523.8 543.6C518.1 537.3 511.5 532.2 504.3 528C490.5 519.9 475.5 515.4 460.8 511.5V511.2C460.5 510 460.5 508.5 460.5 507C460.2 504 460.2 501 459.6 497.7C458.7 491.4 456.3 485.1 453.3 479.7C450.3 474.3 446.1 468.9 441 465C436.5 461.4 431.4 459 426 457.2C424.8 453 423.6 448.8 421.8 444.9C419.7 440.1 417 435.6 413.1 431.7C409.2 427.5 402.9 424.2 398.1 422.7C382.8 419.1 372.3 421.5 372.3 421.5C372.3 421.5 368.7 450.3 363.6 489C363.6 489 351.9 503.7 347.7 509.4C346.5 510.6 345.6 512.4 344.4 513.6C343.8 514.2 343.5 514.8 342.9 515.4L341.1 517.2C338.7 519.6 336 521.7 333.3 523.8C327.9 528 321.9 531.9 316.2 535.8C314.7 536.7 313.2 537.9 312 539.1C310.5 540.3 309.6 541.8 308.4 543C307.2 544.5 306.3 545.7 305.4 547.2L303.9 549.6L303.3 550.8L303 551.1L302.4 550.2L301.5 548.4C300.9 547.2 300 546.3 299.1 545.4L293.7 540C289.8 536.7 285.9 533.4 281.7 530.4C277.5 527.4 273.3 524.7 269.1 522C264.9 519.3 260.4 516.9 256.5 513.9C248.4 507.9 243 500.1 236.7 492.6C233.4 488.7 231.6 482.1 231 477.9C230.7 474.9 232.8 445.5 230.4 424.2C230.4 423 228.3 421.5 213.6 420.9C198.6 421.2 187.2 430.8 182.4 435.6C177.9 440.4 173.1 445.5 170.7 452.4C169.5 455.7 169.2 459.6 168.6 462.6C168.3 465.3 167.7 466.8 166.5 468.3C161.4 469.5 156.6 472.2 153 475.8C148.8 480 146.1 484.8 144.3 489.9C142.2 495 141 500.1 139.8 504.6C139.2 507 138.3 509.1 137.4 510.9C137.1 511.8 136.5 512.1 136.2 512.4C136.2 512.4 135.9 512.4 135.9 512.7L134.1 513C124.2 515.4 114.3 518.7 104.7 523.2C95.3999 528 86.6999 534 79.4999 541.8C72.2999 549.6 66.8999 558.9 63.5999 568.8C62.6999 571.2 62.0999 573.9 61.4999 576.3L61.1999 578.4C61.1999 578.7 61.1998 579 60.8998 579.6V580.5L60.2999 584.4C59.6999 589.5 59.3999 594.6 58.7999 599.4C57.2999 619.5 56.9999 639.6 57.2999 659.7C57.2999 660.9 57.5999 663.6 58.7999 663.6C98.9999 663 541.5 664.2 541.5 664.2C543.9 664.2 546 662.1 546 659.7C545.7 644.7 545.4 628.8 544.2 612.9V612.9ZM374.4 434.4C377.4 436.2 388.5 441.9 392.4 449.7C392.7 452.1 393 455.1 392.4 457.5C391.8 459.9 390.6 462 389.1 464.4C382.8 472.2 370.8 483.3 369.6 484.8C384.9 458.4 374.4 434.4 374.4 434.4V434.4ZM223.2 487.5C225.9 491.7 235.2 500.4 238.2 504C237 503.1 226.5 495 225.3 494.4C221.7 492 219.9 489.3 217.2 485.7C211.8 479.1 209.1 470.4 207 461.7C206.1 457.5 205.2 453 207.9 450.3C214.5 445.8 225.6 444.3 226.2 444C226.8 452.1 216.6 461.4 216.9 469.5C216.6 470.4 216.6 470.7 216.6 471.6V474C216.9 475.5 217.2 477 217.5 478.2C218.4 480.3 221.7 485.1 223.2 487.5ZM144 515.4C145.5 512.7 146.4 510 147 507.6C148.5 502.5 149.4 498 151.2 493.5C152.7 489 155.1 485.1 158.1 482.1C161.1 479.1 165 477 169.2 476.1C169.8 476.1 170.1 475.8 170.7 475.5C171 478.8 171.3 482.1 171.9 485.4C172.8 490.5 174 495.6 176.1 500.4C177 503.1 178.5 505.2 179.7 507.6C181.2 509.7 182.7 512.1 184.2 514.2C191.1 522.6 199.5 528.6 208.8 533.4C218.1 538.2 227.7 541.8 237.9 543.6C228.6 539.4 219.6 534.6 211.2 529.2C207 526.5 202.8 523.8 199.2 520.5C195.3 517.2 191.7 513.9 189 510.3C187.5 508.5 186 506.4 184.8 504.6C183.6 502.5 182.4 500.4 181.5 498.3C179.4 494.1 178.2 489 176.7 484.5C175.5 480.3 174.6 475.8 174 471.6C174.3 471 171.6 456.3 187.2 441.9C191.4 437.4 196.2 433.5 201 430.5C213.6 423.3 221.4 426.3 225.3 426.9C225.6 432.9 225.9 436.2 226.2 442.2C225.3 442.5 213.6 445.2 212.7 445.5C210.6 446.4 208.2 447 206.1 448.8C204 450.3 202.8 453.3 202.5 455.7C202.2 458.4 202.5 460.8 202.8 463.2C204 472.5 206.7 482.1 212.7 489.9C215.7 493.8 219.6 497.1 223.5 499.5L235.2 506.7C239.1 509.1 243 511.2 246.9 513.3C249.3 515.1 251.4 516.9 253.8 518.4C258 521.4 262.5 523.8 267 526.2C271.2 528.6 275.7 531.3 279.9 534C284.1 536.7 288.3 539.7 292.2 542.7C294.3 544.2 296.1 546 297.9 547.8C298.8 548.7 299.7 549.6 300.3 550.5C300.6 551.1 300.9 551.4 301.2 552L301.8 552.9C302.1 553.2 302.4 553.8 302.7 554.1C302.7 554.1 303 554.1 303.3 553.8V553.5L303.6 553.2L303.9 552.6L304.5 551.4L306 549.3C306.9 547.8 308.1 546.6 309.3 545.1C310.5 543.9 311.7 542.4 312.9 541.5C314.1 540.6 315.6 539.4 317.1 538.5C323.1 534.9 329.1 531.3 334.8 527.1C337.8 525 340.5 522.9 343.2 520.5C343.8 519.9 344.4 519.3 345.3 518.7C345.9 518.1 346.5 517.5 347.1 516.6C348.3 515.1 349.2 513.9 350.4 512.4C354.9 507.3 360 502.5 365.1 497.7L372.9 490.5C375 488.4 382.5 482.1 383.7 480.9C388.2 477 392.1 472.8 395.1 467.4C398.1 462 397.8 455.4 395.7 449.1C392.4 441.9 378.9 434.1 375 431.7L374.7 424.2C375.3 424.5 387.9 421.5 399 428.4C406.5 433.2 412.8 444.3 414.9 448.5C416.7 452.7 418.2 457.2 419.1 461.7C419.4 463.2 420.6 464.4 422.1 465C422.4 465 422.4 465 422.7 465.3C422.1 471.3 420.9 477.3 418.5 482.7C416.7 487.2 414.6 491.4 411.6 494.7C408.6 498.3 405 501.6 401.4 504.6C399.6 506.1 397.8 507.6 396 509.4L390.3 513.9C386.4 516.9 382.5 519.9 378.6 522.6C370.8 528.3 362.7 534 354.9 540C364.2 536.1 372.9 531.6 381.3 526.5C389.7 521.4 398.1 515.7 405.6 509.1C407.4 507.3 409.5 505.8 411 504L413.7 501.3L416.1 498.3C419.4 494.1 421.5 489.3 423 484.2C424.8 478.2 425.4 472.2 425.1 465.9C429.3 467.4 432.9 469.2 436.2 472.2C440.4 475.5 443.4 480 446.1 484.8C448.8 489.6 450.6 494.7 451.2 500.1C451.5 502.8 451.8 505.5 451.8 508.5C451.8 510 451.8 511.5 452.1 513.3C452.1 514.2 452.4 515.1 452.7 516.6C453 517.2 453.3 518.1 453.9 518.7L454.2 519L450 523.2C447.3 525.6 444.3 528 441.6 530.4C435.9 535.2 429.9 539.7 423.9 543.9C417.9 548.1 411.9 552.6 405.6 555.9C402.3 557.7 399.3 559.2 396 560.4C392.7 561.6 389.1 562.8 385.5 563.7C378.3 565.8 371.1 567.6 363.9 569.1C356.7 570.9 349.5 572.4 342.3 573.6L331.5 575.4C329.7 575.7 327.9 575.7 326.4 575.7C324.6 575.7 323.1 575.1 321.6 574.5L321 574.2C321.9 570.9 322.8 567.3 324 564.3C324.3 563.7 324 562.8 323.7 562.2C323.4 561.6 322.5 561.3 321.6 561.3C320.1 561.3 318.9 562.2 318 563.1C318.9 561.9 320.4 561.3 321.6 561.3C322.2 561.3 323.1 561.6 323.4 562.2C323.7 562.8 324 563.4 323.7 564.3C322.2 567.9 321.3 571.5 320.1 575.4C319.2 579 318.3 583.2 318.9 587.1C319.5 594.9 320.7 602.4 322.2 610.2C322.5 612 323.1 614.1 323.4 615.9L324.3 618.6C324.6 619.5 324.9 620.4 324.9 621.3C325.5 624.9 325.5 628.8 325.5 632.7C325.2 636.6 324.9 640.5 324.6 644.1C324.3 645.9 324 648 323.7 649.8C323.7 650.1 323.4 650.7 323.4 651C323.1 651 322.2 651 321.6 650.7C320.1 650.1 318.6 648.9 317.7 647.7C317.4 647.4 317.4 647.1 317.1 646.8V645.9C317.1 645 317.4 644.1 317.4 643.2C318 639.3 318.6 635.7 319.2 631.8C319.5 630 319.8 627.9 319.8 626.1C319.8 624.3 319.8 621.9 319.5 620.1L317.1 608.7C315.6 601.2 313.8 593.4 312.9 585.9C312.6 584.1 312.6 582 312.6 580.2C312.6 578.7 312.9 577.5 313.2 576C313.2 576 313.5 574.8 313.5 574.5C314.1 572.7 314.4 570.9 315.3 568.8C314.7 570.6 314.1 572.4 313.5 574.5C313.5 574.8 313.2 575.4 313.2 575.7C310.2 573.9 306.9 573 303.3 572.4C299.4 571.8 295.8 571.5 291.9 570.9C292.5 568.5 293.1 566.4 294 564.3C294 563.7 293.7 562.8 293.4 562.2C293.1 561.6 292.8 561 291.9 560.4C290.4 559.8 288.9 560.4 287.7 561.3C288.9 560.7 290.4 560.1 291.6 560.7C292.8 561.3 293.1 563.1 293.1 564.3C291.6 567.9 290.1 571.5 289.5 575.7C289.2 577.5 288.9 579.9 289.2 581.7C289.5 583.8 289.8 585.6 290.1 587.7C291.3 595.5 292.8 603.3 294.3 611.1L295.2 616.8C295.5 618.6 295.8 620.7 295.8 622.5C295.5 626.1 294.6 630 293.4 633.6C292.2 637.2 291 641.1 289.8 644.7C289.2 646.5 288.3 648.3 287.7 650.1C287.4 650.4 287.4 650.7 287.1 651.3C286.5 651 285.9 651 285 650.4C284.1 650.1 283.2 649.5 282.6 648.9C282.3 648.6 282 648.3 281.4 648L281.1 647.7C281.1 647.1 281.4 646.2 281.7 645.3L282.6 642.6L286.5 631.5C287.7 627.6 288.9 624 289.5 619.8C290.1 615.6 289.8 611.7 289.5 607.8C288.9 600 287.4 592.2 285.9 584.4C284.1 579 284.1 572.7 285.6 567.3H285.9C285.9 567.3 285.9 567 285.6 567C286.2 565.2 286.8 563.4 287.7 561.6C286.8 563.1 285.9 564.9 285.3 566.7C283.8 564.9 282.9 562.5 283.5 561C284.1 559.2 285.9 558 288.3 558.3C290.4 558.3 292.5 559.5 294.3 561C295.2 561.9 295.8 562.8 296.1 564C296.4 564.9 295.8 566.1 294.6 567C295.2 567 296.1 566.7 296.7 566.1C297.3 565.5 297.6 564.6 297.6 564C297.6 562.5 297 561 296.1 559.8C294.3 557.4 291.6 555.6 288.6 555.3C287.1 555.3 285.3 555.6 283.8 556.5C282.3 557.4 281.4 558.9 281.4 560.7C281.1 564 283.2 566.1 285.6 567.3C285.3 568.5 285 569.4 284.7 570.6L268.2 568.5C260.4 567.3 252.6 566.7 244.8 565.5C237 564.3 229.2 563.1 221.7 561.6C217.8 561 214.2 560.1 210.6 558.9C207 558 203.4 556.2 199.8 554.7C192.6 551.7 185.7 547.8 179.1 544.2C172.2 540.3 165.6 536.4 159 532.2C155.7 530.1 152.4 528 149.4 525.6L144.9 522L143.1 520.2C142.8 517.2 143.4 516.3 144 515.4V515.4ZM300 657.9L239.7 658.5L179.4 658.8C139.8 659.1 100.5 658.8 60.8998 658.2C61.1998 639 62.0999 619.5 64.1999 600.3C64.7999 595.5 65.3999 590.4 65.9999 585.6L66.5999 582V581.1C66.5999 580.8 66.5999 580.5 66.8999 580.2L67.1999 578.4C67.7999 576 68.3999 573.9 69.2999 571.5C72.5999 562.5 77.6999 554.4 84.2999 547.5C90.8999 540.6 98.9999 535.2 107.7 531C116.4 526.8 125.7 523.5 135 521.4L136.8 521.1C138 520.8 138.9 520.5 139.8 519.6C140.4 519.3 140.7 519 141 518.4C142.5 520.8 144.6 522.6 146.7 524.7C149.7 527.4 152.7 530.1 155.7 532.5C162 537.3 168.3 541.8 175.2 546.3C181.8 550.5 188.7 554.4 195.9 558C199.5 559.8 203.1 561.3 207.3 562.5C211.2 563.7 215.1 564.6 219 565.5C234.6 568.5 250.2 570.3 266.1 571.2C272.7 571.5 276.3 571.8 282.6 571.8C282.3 575.4 282.6 579.3 283.2 582.9C284.7 590.7 285.6 598.5 285.9 606.3C286.2 610.2 286.2 614.1 285.6 618C285 621.6 283.8 625.5 282.6 629.1L278.7 640.2C278.4 641.1 278.1 642 277.8 643.2C277.5 644.1 277.2 645 277.2 646.5V647.4C277.2 647.7 277.5 648 277.5 648L277.8 648.3C278.1 648.6 278.4 648.6 278.4 648.9C278.7 649.2 279.3 649.5 279.6 649.8C280.5 650.4 281.4 651 282.3 651.3C283.2 651.9 284.1 652.2 285.6 652.5H286.8C287.4 652.2 287.4 652.2 287.7 651.9C288 651.6 288.3 651.3 288.3 651C288.6 650.4 288.9 650.1 288.9 649.5C289.8 647.7 290.4 645.9 291 643.8C292.2 640.2 293.4 636.3 294.6 632.4C295.5 628.5 296.7 624.6 297 620.4C297 618 296.4 616.2 296.1 614.4C295.8 612.6 295.5 610.5 294.9 608.7C293.4 600.9 291.6 593.4 290.1 585.6C289.8 583.8 289.5 581.7 289.2 579.9C288.9 578.1 288.9 576 289.2 574.2C289.2 573.6 289.5 573 289.5 572.4C296.7 572.7 304.2 572.1 311.1 574.5C310.8 576 310.5 577.2 310.5 578.7C310.2 580.5 310.5 582.6 310.8 584.4C311.7 592.2 312.9 599.7 314.1 607.5L315.9 618.9C316.5 622.5 315.6 626.4 315 630L312.9 641.4C312.6 642.3 312.6 643.2 312.6 644.4C312.6 644.7 312.6 645.9 312.9 646.5C313.2 647.1 313.5 647.7 313.8 648C315.3 649.8 317.1 651 318.9 651.9C319.8 652.2 321 652.8 322.8 652.5C323.7 652.2 324.6 651.3 324.9 650.7C325.2 650.1 325.2 649.5 325.2 649.2C325.5 647.1 325.8 645.3 326.1 643.2C326.7 639.3 326.7 635.4 327 631.5C327 627.6 327 623.7 326.1 619.8C325.8 618.9 325.5 617.7 325.2 616.8L324.3 614.1C323.7 612.3 323.1 610.5 322.8 608.4C321 600.9 319.5 593.4 318.3 585.6C317.7 582.6 318 579.3 318.9 576.3C320.7 577.2 322.8 577.8 324.6 578.1C325.5 578.4 326.7 578.4 327.6 578.4H330.6C334.5 578.4 338.1 577.8 342 577.5C357 575.7 371.7 572.7 386.1 568.8C389.7 567.6 393.3 566.7 396.9 565.2C400.5 564 404.1 562.2 407.4 560.1C414 556.2 420 551.7 425.7 546.9C431.4 542.1 437.1 537.3 442.5 531.9C445.2 529.2 447.9 526.5 450.3 523.5C451.5 522 452.7 520.5 453.9 518.7C454.5 519 455.1 519.6 455.7 519.9C456 519.9 456 520.2 456.3 520.2C471.3 524.4 486 528.9 498.9 536.7C511.8 544.2 522 555.3 527.7 568.8C528.9 572.1 530.1 575.7 531 579.3L531.3 580.5V581.7L531.6 584.4L532.2 590.1C533.1 597.9 533.7 605.4 534.3 613.2C535.2 627.3 535.8 641.4 535.8 655.5L420 656.1C380.4 656.7 340.2 657.3 300 657.9V657.9ZM314.1 566.7C313.2 565.5 312.9 564.3 312.9 563.4C312.9 562.2 313.2 561.3 313.8 560.4C315 558.9 317.4 558.3 319.5 558.6C321.6 558.9 324 560.1 324.9 561.9C325.5 562.8 325.5 563.7 325.2 564.9C324.9 566.1 324 567 323.1 568.2C324.3 567.9 325.5 567 326.4 565.5C327.3 564.3 327.3 562.2 326.7 560.7C325.5 557.7 322.5 555.9 319.5 555.3C318 555 316.5 555 315 555.6C313.5 556.2 312 557.1 311.4 558.6C310.8 559.8 310.5 561.6 310.8 563.1C311.7 564.9 312.9 566.1 314.1 566.7V566.7ZM123 627.6C120.9 619.5 118.2 611.7 114.6 604.2C111 596.7 106.5 589.5 101.1 583.2C95.6999 576.9 89.6999 570.9 82.4999 567C85.7999 569.4 88.7999 572.4 91.4999 575.4C94.4999 578.4 96.8998 581.4 99.2998 584.7C104.1 591.3 108.3 598.2 111.9 605.7C113.7 609.3 115.5 612.9 116.7 616.8C118.2 620.4 119.4 624.6 120.9 628.2C122.1 632.1 123 636 124.2 639.9C125.1 643.8 126 648 126.9 651.9C126.6 647.7 126 643.8 125.4 639.6C124.8 635.7 124.2 631.8 123 627.6V627.6ZM499.8 585.9C494.4 591.6 489.9 598.2 486.3 605.1C482.7 612 479.7 619.5 477.3 627C476.1 630.6 475.5 634.5 474.3 638.4L472.5 650.1C473.7 646.5 474.6 642.6 475.8 639C477 635.4 478.2 631.5 479.4 627.9C480 626.1 480.9 624.3 481.5 622.5C482.1 620.7 483 618.9 483.9 617.1C485.4 613.5 487.2 610.2 489 606.6C492.6 600 496.8 593.4 501.6 587.4C504 584.4 506.7 581.7 509.4 578.7C512.1 576 515.1 573.3 518.4 571.5C511.2 574.8 505.2 580.2 499.8 585.9V585.9Z" fill="black"/>
<path d="M183.9 270C183.9 270 176.4 262.8 167.7 259.5C159 256.2 149.4 261.6 146.4 270.6C143.4 279.3 150.3 315.9 161.4 329.1C172.5 342.3 180 343.5 187.5 336.6C195 329.7 208.5 304.2 183.9 270Z" fill="#FBB98F"/>
<path d="M187.8 275.4C189 277.2 190.2 279.3 191.4 281.1C192.6 282.9 193.5 285.3 194.7 287.1C195.6 289.2 196.5 291.3 197.4 293.7C198 296.1 198.9 298.2 199.2 300.9C199.5 302.1 199.8 303.3 199.8 304.5L200.1 308.1C200.1 313.2 199.5 318.3 198 322.8C196.5 327.6 194.4 331.8 191.4 335.4C190.8 336.3 189.9 337.2 189 337.8C188.1 338.4 187.2 339.3 186.3 339.9C184.5 341.1 182.4 342 180 342.3C177.9 342.6 175.5 342.3 173.4 341.4C171.3 340.5 169.5 339.3 168 337.8C166.2 336.3 164.7 334.8 163.2 333C161.7 331.2 160.5 329.7 159 327.6C153.9 319.8 151.2 310.5 148.8 301.5C147.6 297 146.4 292.5 145.5 287.7C144.6 282.9 143.7 278.1 144 273C144 271.8 144.3 270.3 144.6 269.1C144.9 268.5 144.9 267.9 145.2 267.3L146.1 265.5C147.3 263.4 148.8 261.6 150.6 260.1C154.2 257.1 158.4 255.9 162.6 256.5C164.7 256.8 166.8 257.4 168.6 258.3C170.4 259.2 172.2 260.4 174 261.6C177.6 264 180.9 266.4 183.9 269.4L187.8 275.4V275.4ZM173.7 263.1C171.9 262.2 170.1 261.3 168.3 260.7C166.5 260.1 164.7 259.8 162.9 259.8C159.3 260.1 156 261.6 153 264C151.5 265.2 150.3 266.7 149.4 268.5C148.8 269.4 148.5 270.3 148.2 271.2C147.9 272.1 147.6 273 147.6 273.9C147 278.1 147.3 282.9 147.9 287.7C148.5 292.2 149.1 297 150.3 301.5C152.7 310.5 156 319.5 161.1 326.1C163.8 329.4 166.8 332.4 170.1 334.8C173.4 337.2 176.7 338.7 180 338.1C181.5 337.8 183.3 337.2 184.8 336C186.3 334.8 187.8 333.6 189 332.1C191.4 329.1 193.5 325.2 194.7 321C196.2 316.8 196.8 312.6 196.8 308.1C196.8 303.6 196.2 299.1 195.6 294.6C193.8 285.6 189.6 277.2 184.5 270C180.6 267.3 177.3 264.9 173.7 263.1V263.1Z" fill="#F0B399"/>
<path d="M157.8 268.8C167.7 270.6 174 287.1 175.8 298.2C176.1 298.5 176.1 298.8 176.4 299.1C177.6 300.9 175.2 302.7 174 300.9C172.5 298.5 171 296.1 168.6 295.2C164.4 293.7 162.3 298.5 163.2 303C164.4 308.7 168 312 171 316.2C171.3 316.5 171 317.1 170.7 316.8C165.6 313.8 157.8 302.4 161.4 295.2C164.1 290.1 168.3 291 171.6 294C169.2 287.7 167.4 281.1 162.6 276.3C161.1 274.8 158.1 272.1 156 272.4C152.1 273 152.1 278.7 152.1 282.6C151.8 287.7 152.4 292.8 153.3 297.6C153.3 298.2 152.7 298.2 152.4 297.9C150.3 290.7 146.4 266.7 157.8 268.8V268.8Z" fill="#E09879"/>
<path d="M416.1 270C416.1 270 423.6 262.8 432.3 259.5C441 256.2 450.6 261.6 453.6 270.6C456.6 279.3 449.7 315.9 438.6 329.1C427.5 342.3 420 343.5 412.5 336.6C405 329.7 391.5 304.2 416.1 270Z" fill="#FBB98F"/>
<path d="M415.801 269.7C419.101 266.7 422.401 264.3 425.701 261.9C427.501 260.7 429.301 259.8 431.101 258.6C432.901 257.7 435.001 256.8 437.101 256.8C441.301 256.2 445.501 257.7 449.101 260.4C450.901 261.9 452.401 263.7 453.601 265.8L454.501 267.6C454.801 268.2 455.101 268.8 455.101 269.4C455.401 270.6 455.701 272.1 455.701 273.3C456.001 278.4 455.101 283.2 454.201 288C453.301 292.8 452.101 297.3 450.901 301.8C448.201 310.8 445.501 319.8 440.701 327.9C439.501 330 438.001 331.5 436.501 333.3C435.001 335.1 433.501 336.6 431.701 338.1C429.901 339.6 428.101 340.8 426.301 341.7C424.201 342.6 422.101 342.9 419.701 342.6C417.601 342.3 415.501 341.4 413.401 340.2C412.501 339.6 411.601 339 410.701 338.1C409.801 337.2 408.901 336.6 408.301 335.7C405.301 332.1 403.201 327.9 401.701 323.1C400.201 318.3 399.601 313.2 399.601 308.4L399.901 304.8C399.901 303.6 400.201 302.4 400.501 301.2C400.801 298.8 401.701 296.4 402.301 294C403.201 291.9 404.101 289.5 405.001 287.4C406.201 285.3 407.101 283.2 408.301 281.4C409.501 279.6 410.701 277.5 411.901 275.7L415.801 269.7V269.7ZM416.101 270C411.001 277.2 407.101 285.6 405.001 294.6C404.101 299.1 403.501 303.6 403.801 308.1C404.101 312.6 404.701 316.8 405.901 321C407.101 325.2 409.201 328.8 411.601 332.1C412.801 333.6 414.001 335.1 415.801 336C417.301 337.2 418.801 337.8 420.601 338.1C423.901 338.7 427.201 337.2 430.501 334.8C433.501 332.4 436.801 329.4 439.501 326.1C444.601 319.2 447.901 310.5 450.301 301.5C451.501 297 452.101 292.2 452.701 287.7C453.301 283.2 453.601 278.4 453.001 273.9C453.001 272.7 452.701 272.1 452.401 271.2C452.101 270.3 451.501 269.4 451.201 268.5C450.301 266.7 449.101 265.5 447.601 264C444.901 261.6 441.301 260.1 437.701 259.8C435.901 259.8 434.101 260.1 432.301 260.7C430.501 261.3 428.701 262.2 426.901 263.1C422.701 264.9 419.401 267.3 416.101 270V270Z" fill="#F0B399"/>
<path d="M442.2 268.8C432.3 270.6 426 287.1 424.2 298.2C423.9 298.5 423.9 298.8 423.6 299.1C422.4 300.9 424.8 302.7 426 300.9C427.5 298.5 429.001 296.1 431.401 295.2C435.601 293.7 437.701 298.5 436.801 303C435.601 308.7 432 312 429 316.2C428.7 316.5 429.001 317.1 429.301 316.8C434.401 313.8 442.2 302.4 438.6 295.2C435.9 290.1 431.701 291 428.401 294C430.801 287.7 432.601 281.1 437.401 276.3C438.901 274.8 441.9 272.1 444 272.4C447.9 273 447.901 278.7 447.901 282.6C448.201 287.7 447.6 292.8 446.7 297.6C446.7 298.2 447.3 298.2 447.6 297.9C449.7 290.7 453.6 266.7 442.2 268.8V268.8Z" fill="#E09879"/>
<path d="M430.8 246C427.2 155.7 368.4 106.2 300 106.2C231.6 106.2 172.8 155.7 169.2 246C169.2 248.7 168.9 251.7 168.9 254.4C168.9 350.1 229.5 461.1 300 461.1C370.5 461.1 431.1 350.1 431.1 254.4C431.1 251.4 431.1 248.7 430.8 246V246Z" fill="#FBB98F"/>
<path d="M300 461.1C370.5 461.1 431.1 350.1 431.1 254.4C431.1 251.4 431.1 248.7 430.8 246C427.2 155.7 368.4 106.2 300 106.2C231.6 106.2 172.8 155.7 169.2 246C169.2 248.7 168.9 251.7 168.9 254.4C168.9 350.1 229.5 461.1 300 461.1ZM198.3 361.5C194.1 352.5 190.2 343.2 186.9 333.9C183.6 324.6 180.9 315 178.5 305.1C169.2 266.4 168.3 224.1 183.9 186.9L187.2 180.3C188.4 178.2 189.3 175.8 190.5 173.7L194.4 167.4L196.5 164.1C197.1 163.2 198 162 198.9 161.1C201.9 157.2 204.9 153.3 208.5 149.7C210.3 147.9 211.8 146.1 213.6 144.3L219.3 139.5C234.6 126.9 252.9 119.1 271.8 115.2C276.6 114 281.4 113.7 286.2 113.1C288.6 112.8 291 112.8 293.4 112.8L300.6 112.5C310.2 112.8 319.8 113.7 329.4 115.8C331.8 116.4 334.2 116.7 336.3 117.3L343.2 119.4L346.8 120.6L350.1 122.1L356.7 124.8C358.8 125.7 360.9 127.2 363 128.1C365.1 129.3 367.5 130.2 369.3 131.7C373.2 134.4 377.7 136.8 381.3 140.1C396.6 152.4 409.2 168.3 417.3 186.6C425.4 204.9 429.6 225 430.5 245.4C431.4 265.5 429 285.9 423.9 305.4C419.1 324.9 411.9 343.8 402.9 361.8C393.9 379.8 383.1 396.3 370.8 411.3C364.5 418.8 357.6 425.7 350.4 431.7C342.9 437.7 335.1 442.8 326.4 446.4C318 450 309 452.1 300 452.1C291 452.1 282 450 273.6 446.4C256.5 439.2 241.8 426 229.5 410.7C216.9 396.6 206.7 379.5 198.3 361.5V361.5Z" fill="#FFA573"/>
<path d="M268.5 284.1C268.5 284.1 265.8 278.4 259.8 274.2C253.8 270.3 245.4 266.1 232.8 269.1C220.2 272.1 213 279 208.5 285C208.5 285 209.7 286.5 212.7 288.3C215.7 290.1 226.8 296.4 239.1 295.8C251.4 295.2 262.5 288.3 264.6 287.1C266.7 286.2 268.5 284.1 268.5 284.1V284.1Z" fill="white"/>
<path d="M240.3 264.3C249.3 264.3 256.8 271.5 256.8 280.8C256.8 290.1 249.3 297 240.3 297C231.3 297 223.8 289.8 223.8 280.5C223.8 271.2 231 264.3 240.3 264.3Z" fill="#3E4442"/>
<path d="M240.3 263.4C230.7 263.4 223.2 271.2 223.2 280.5C223.2 290.1 231 297.6 240.3 297.6C249.9 297.6 257.4 289.8 257.4 280.5C257.4 271.2 249.6 263.4 240.3 263.4ZM254.4 286.5C252.6 285.6 250.8 284.7 248.7 284.1C249 283.5 249.3 282.6 249.3 281.7C251.4 282 253.2 282 255.3 282C255.6 283.5 255 285 254.4 286.5ZM253.5 288.3C252 287.1 250.2 285.9 248.4 285C248.4 284.7 248.7 284.7 248.7 284.4L254.1 287.1C254.1 287.7 253.8 288 253.5 288.3V288.3ZM253.8 273C252 273.3 249.9 274.2 248.4 275.4C248.4 275.1 248.1 275.1 248.1 274.8C248.7 274.2 249.6 273.9 250.2 273.3C251.1 272.7 252 271.8 252.9 271.2C252.9 271.8 253.5 272.4 253.8 273V273ZM254.7 275.4C252.6 276 250.8 276.3 249 277.2C249 276.9 248.7 276.6 248.7 276.3C249.6 276 250.5 275.4 251.4 275.1C252.3 274.8 253.5 274.5 254.4 273.9C254.4 274.5 254.7 275.1 254.7 275.4V275.4ZM249.6 280.5C249.6 279.6 249.3 278.7 249.3 278.1C251.4 277.8 253.2 277.2 255 276.6C255.3 277.8 255.6 279.3 255.6 280.8C253.8 280.5 251.7 280.5 249.6 280.5V280.5ZM252 270.6C251.1 271.2 250.2 272.1 249.3 272.7C248.7 273.3 247.8 273.6 247.2 274.2L246.3 273.3C247.5 271.8 248.7 270 249.6 268.2C250.5 269.1 251.4 269.7 252 270.6V270.6ZM241.2 290.1C241.8 290.1 242.7 289.8 243.3 289.5C243.6 290.4 244.2 291.6 244.5 292.5C244.8 293.4 245.1 294.3 245.7 294.9C244.5 295.5 243 295.8 241.5 295.8C241.5 294 241.5 291.9 241.2 290.1V290.1ZM245.4 266.1C246.6 266.7 248.1 267.3 249.3 268.2C248.1 269.7 246.9 271.5 245.7 273C245.4 272.7 245.1 272.7 244.8 272.4C245.1 270.3 245.4 267.9 245.4 266.1ZM240.9 265.2C242.1 265.2 243.3 265.5 244.2 265.8C243.9 267.3 243.9 268.8 243.6 270.3C243.6 270.9 243.3 271.2 243.3 271.8C242.7 271.5 242.1 271.5 241.5 271.2C241.5 269.1 241.2 267 240.9 265.2ZM245.7 292.2C245.1 291.3 244.8 290.1 244.2 289.2C244.5 289.2 244.5 288.9 244.8 288.9C245.1 289.8 245.7 290.7 246.3 291.6C246.9 292.5 247.2 293.4 247.8 294.3C247.5 294.6 247.2 294.6 246.9 294.9C246.6 293.7 246 293.1 245.7 292.2V292.2ZM246.9 291C246.3 290.1 246 289.2 245.4 288.3C245.7 288 246 288 246.3 287.7C247.2 289.5 248.4 291 249.9 292.5C249.6 292.8 249 293.1 248.7 293.4C248.1 292.8 247.2 291.9 246.9 291V291ZM240.6 265.2C240.3 267 240.3 269.1 240.3 271.2H239.1C239.1 270.6 238.8 270 238.8 269.4C238.5 268.2 238.5 266.7 238.2 265.2C238.8 265.2 239.4 264.9 240 264.9C240.3 264.9 240.3 264.9 240.6 265.2ZM232.2 267.3C233.1 269.1 234.3 270.9 235.5 272.4C235.2 272.7 234.9 272.7 234.9 273C234.6 272.7 234.3 272.1 233.7 271.8C232.8 270.6 231.9 269.4 230.7 268.5C231.3 267.9 231.6 267.6 232.2 267.3V267.3ZM238.2 271.2C237.9 271.2 237.6 271.2 237.6 271.5C237 269.4 236.4 267.6 235.8 265.8C236.4 265.5 237 265.5 237.9 265.2C237.6 267.3 237.6 269.4 238.2 271.2V271.2ZM236.7 271.8C236.7 271.8 236.4 271.8 236.4 272.1C235.5 270.3 234.3 268.5 233.1 267C233.7 266.7 234.6 266.4 235.2 266.1C235.5 267.9 235.8 270 236.7 271.8V271.8ZM235.2 288.6C235.5 288.6 235.5 288.9 235.8 288.9C235.5 289.5 235.2 289.8 235.2 290.4C234.6 291.6 233.7 293.1 233.4 294.3L231.6 293.4C232.5 292.5 233.1 291.3 234 290.4C234.3 289.8 234.9 289.2 235.2 288.6V288.6ZM236.4 290.7C236.7 290.4 236.7 289.8 237 289.5H237.3C236.4 291.3 235.8 293.4 235.5 295.2C234.9 294.9 234.6 294.9 234 294.6C234.9 293.4 235.5 291.9 236.4 290.7ZM238.2 289.8C238.5 289.8 238.8 289.8 239.1 290.1C238.5 291.9 238.5 294 238.2 296.1C237.6 296.1 236.7 295.8 236.1 295.8C237 293.7 237.6 291.6 238.2 289.8ZM230.1 268.8C230.7 270 231.6 270.9 232.5 271.8C233.1 272.4 233.4 273 233.7 273.6C233.4 273.9 232.8 274.2 232.5 274.8C231 273.6 229.2 272.4 227.4 271.5C228.6 270.3 229.2 269.4 230.1 268.8ZM226.8 288.3L231.3 285.6C231.6 285.6 231.6 285.3 231.9 285.3C232.2 285.6 232.5 286.2 232.8 286.5C231.3 287.7 229.8 289.5 228.6 290.7C227.7 290.1 227.4 289.2 226.8 288.3V288.3ZM225.3 285C226.5 284.7 227.7 284.1 228.6 283.8C229.2 283.5 230.1 283.2 230.7 282.9C230.7 283.5 231 283.8 231.3 284.4C231 284.7 230.7 284.7 230.4 285C228.9 285.9 227.7 286.8 226.2 288C225.9 286.8 225.6 285.9 225.3 285ZM224.7 280.5C224.7 279.9 224.7 279.6 225 279C226.8 279.6 228.9 279.9 231 279.9V281.4C230.1 281.7 229.2 282 228.3 282.6C227.4 282.9 226.2 283.2 225.3 283.8C224.7 282.9 224.7 281.7 224.7 280.5V280.5ZM225.6 275.7C226.8 276.3 228.3 276.9 229.5 277.5C230.1 277.8 230.4 278.1 231 278.1C231 278.4 230.7 278.7 230.7 279C230.1 279 229.8 278.7 229.2 278.7C227.7 278.4 226.2 278.1 224.7 278.4L225.6 275.7ZM227.4 271.8C228.9 273 230.4 274.5 232.2 275.4C231.9 276 231.6 276.3 231.3 276.9C231 276.9 230.7 276.6 230.4 276.6C228.9 276 227.1 275.4 225.6 274.8C226.2 273.6 226.8 272.7 227.4 271.8V271.8ZM228.9 291.3C230.4 290.1 232.2 288.6 233.4 287.1L234.3 288C233.7 288.6 233.4 289.2 233.1 289.8C232.2 290.7 231.6 291.9 230.7 292.8C230.1 292.5 229.5 291.9 228.9 291.3V291.3ZM239.4 296.1C239.7 294 240 292.2 240 290.1H240.6C240.3 292.2 240.3 294.3 240.6 296.1H239.4ZM250.5 292.2C249.3 290.7 247.8 289.2 246.6 287.7C247.2 287.1 247.8 286.5 248.1 285.9C249.6 287.1 251.4 288.3 253.2 289.5C252.3 290.1 251.4 291.3 250.5 292.2V292.2Z" fill="#1B2522"/>
<path d="M240.301 271.8C245.101 271.8 249.001 275.7 249.001 280.5C249.001 285.3 245.101 289.2 240.301 289.2C235.501 289.2 231.601 285.3 231.601 280.5C231.601 275.7 235.201 271.8 240.301 271.8Z" fill="black"/>
<path d="M235.2 273C237 273 238.5 274.5 238.5 276.3C238.5 278.1 237 279.6 235.2 279.6C233.4 279.6 231.9 278.1 231.9 276.3C231.9 274.5 233.4 273 235.2 273ZM246 285.3C247.2 285.3 247.8 286.2 247.8 287.1C247.8 288 246.9 288.9 246 288.9C245.1 288.9 244.2 288 244.2 287.1C244.2 286.2 245.1 285.3 246 285.3Z" fill="white"/>
<path d="M208.2 283.8C208.2 303 222.3 318.3 240 318.3C257.7 318.3 271.8 302.7 271.8 283.8C271.8 264.9 257.7 249.3 240 249.3C222.3 249.3 208.2 264.6 208.2 283.8ZM208.5 285.3C213 279.6 220.5 272.4 232.8 269.4C245.1 266.4 253.8 270.6 259.8 274.5C265.8 278.4 268.5 284.4 268.5 284.4C268.5 284.4 266.7 286.2 264.6 287.7C262.5 288.9 251.4 295.8 239.1 296.4C226.8 297 215.7 290.7 212.7 288.9C210 286.8 208.5 285.3 208.5 285.3Z" fill="#FBB98F"/>
<path d="M267 275.1C253.8 264.3 237.9 262.2 222 267.3C221.4 267.6 221.1 266.7 221.7 266.4C236.7 259.8 255.6 263.7 267.3 274.8C267.6 274.8 267.3 275.1 267 275.1V275.1Z" fill="#F0B399"/>
<path d="M206.7 288C207.3 287.4 208.2 286.8 208.8 286.2C224.1 301.8 253.8 299.7 268.8 285C268.8 285 268.8 285.3 269.1 285.3C269.4 285.9 270.3 285.3 270 284.7C270 284.4 269.7 284.4 269.7 284.1C270 283.8 269.7 283.2 269.1 283.2C262.8 272.4 250.2 267 237.9 267.6C226.2 268.2 210.3 276 205.8 287.4C205.2 288.3 206.1 288.6 206.7 288V288ZM209.4 285.6C213 282.3 216 278.4 220.5 275.7C225.3 272.7 230.4 270.6 236.1 269.7C248.7 267.6 261.3 273.6 267.9 284.1C259.5 290.4 250.2 294.9 239.4 295.2C227.7 295.5 219.3 291.3 209.4 285.6Z" fill="#1B1929"/>
<path d="M331.5 284.1C331.5 284.1 334.2 278.4 340.2 274.2C346.2 270.3 354.6 266.1 367.2 269.1C379.8 272.1 387 279 391.5 285C391.5 285 390.3 286.5 387.3 288.3C384.3 290.1 373.2 296.4 360.9 295.8C348.6 295.2 337.5 288.3 335.4 287.1C333.3 286.2 331.5 284.1 331.5 284.1V284.1Z" fill="white"/>
<path d="M359.7 264.3C368.7 264.3 376.2 271.5 376.2 280.8C376.2 290.1 369 297 359.7 297C350.4 297 343.2 289.8 343.2 280.5C343.2 271.2 350.7 264.3 359.7 264.3Z" fill="#3E4442"/>
<path d="M359.701 263.4C350.101 263.4 342.601 271.2 342.601 280.5C342.601 290.1 350.401 297.6 359.701 297.6C369.001 297.6 376.801 289.8 376.801 280.5C377.101 271.2 369.301 263.4 359.701 263.4ZM374.101 286.5C372.301 285.6 370.501 284.7 368.401 284.1C368.701 283.5 369.001 282.6 369.001 281.7C371.101 282 372.901 282 375.001 282C375.001 283.5 374.701 285 374.101 286.5ZM373.201 288.3C371.701 287.1 369.901 285.9 368.101 285C368.101 284.7 368.401 284.7 368.401 284.4L373.801 287.1C373.801 287.7 373.501 288 373.201 288.3V288.3ZM373.501 273C371.701 273.3 369.601 274.2 368.101 275.4C368.101 275.1 367.801 275.1 367.801 274.8C368.401 274.2 369.301 273.9 369.901 273.3C370.801 272.7 371.701 271.8 372.601 271.2C372.601 271.8 372.901 272.4 373.501 273V273ZM374.401 275.4C372.301 276 370.501 276.3 368.701 277.2C368.701 276.9 368.401 276.6 368.401 276.3C369.301 276 370.201 275.4 371.101 275.1C372.001 274.8 373.201 274.5 374.101 273.9C374.101 274.5 374.401 275.1 374.401 275.4V275.4ZM369.301 280.5C369.301 279.6 369.001 278.7 369.001 278.1C371.101 277.8 372.901 277.2 374.701 276.6C375.001 277.8 375.301 279.3 375.301 280.8C373.501 280.5 371.401 280.5 369.301 280.5V280.5ZM371.701 270.6C370.801 271.2 369.901 272.1 369.001 272.7C368.401 273.3 367.501 273.6 366.901 274.2L366.001 273.3C367.201 271.8 368.401 270 369.301 268.2C370.201 269.1 371.101 269.7 371.701 270.6V270.6ZM360.901 290.1C361.501 290.1 362.401 289.8 363.001 289.5C363.301 290.4 363.901 291.6 364.201 292.5C364.501 293.4 364.801 294.3 365.401 294.9C364.201 295.5 362.701 295.8 361.201 295.8C361.201 294 361.201 291.9 360.901 290.1V290.1ZM365.101 266.1C366.301 266.7 367.801 267.3 369.001 268.2C367.801 269.7 366.601 271.5 365.401 273C365.101 272.7 364.801 272.7 364.501 272.4C364.801 270.3 365.101 267.9 365.101 266.1ZM360.601 265.2C361.801 265.2 363.001 265.5 363.901 265.8C363.601 267.3 363.601 268.8 363.301 270.3C363.301 270.9 363.001 271.2 363.001 271.8C362.401 271.5 361.801 271.5 361.201 271.2C361.201 269.1 360.901 267 360.601 265.2ZM365.401 292.2C364.801 291.3 364.501 290.1 363.901 289.2C364.201 289.2 364.201 288.9 364.501 288.9C364.801 289.8 365.401 290.7 366.001 291.6C366.601 292.5 366.901 293.4 367.501 294.3C367.201 294.6 366.901 294.6 366.601 294.9C366.001 293.7 365.701 293.1 365.401 292.2V292.2ZM366.601 291C366.001 290.1 365.701 289.2 365.101 288.3C365.401 288 365.701 288 366.001 287.7C366.901 289.5 368.101 291 369.601 292.5C369.301 292.8 368.701 293.1 368.401 293.4C367.801 292.8 366.901 291.9 366.601 291V291ZM360.301 265.2C360.001 267 360.001 269.1 360.001 271.2H358.801C358.801 270.6 358.501 270 358.501 269.4C358.201 268.2 358.201 266.7 357.901 265.2C358.501 265.2 359.101 264.9 359.701 264.9C360.001 264.9 360.001 264.9 360.301 265.2ZM351.901 267.3C352.801 269.1 354.001 270.9 355.201 272.4C354.901 272.7 354.601 272.7 354.601 273C354.301 272.7 354.001 272.1 353.401 271.8C352.501 270.6 351.601 269.4 350.401 268.5C351.001 267.9 351.301 267.6 351.901 267.3V267.3ZM357.901 271.2C357.601 271.2 357.301 271.2 357.301 271.5C356.701 269.4 356.101 267.6 355.501 265.8C356.101 265.5 356.701 265.5 357.601 265.2C357.001 267.3 357.301 269.4 357.901 271.2V271.2ZM356.401 271.8C356.401 271.8 356.101 271.8 356.101 272.1C355.201 270.3 354.001 268.5 352.801 267C353.401 266.7 354.301 266.4 354.901 266.1C355.201 267.9 355.501 270 356.401 271.8V271.8ZM354.901 288.6C355.201 288.6 355.201 288.9 355.501 288.9C355.201 289.5 354.901 289.8 354.901 290.4C354.301 291.6 353.401 293.1 353.101 294.3L351.301 293.4C352.201 292.5 352.801 291.3 353.701 290.4C354.001 289.8 354.601 289.2 354.901 288.6V288.6ZM355.801 290.7C356.101 290.4 356.101 289.8 356.401 289.5H356.701C355.801 291.3 355.201 293.4 354.901 295.2C354.301 294.9 354.001 294.9 353.401 294.6C354.601 293.4 355.201 291.9 355.801 290.7ZM357.901 289.8C358.201 289.8 358.501 289.8 358.801 290.1C358.201 291.9 358.201 294 357.901 296.1C357.301 296.1 356.401 295.8 355.801 295.8C356.401 293.7 357.301 291.6 357.901 289.8ZM349.801 268.8C350.401 270 351.301 270.9 352.201 271.8C352.801 272.4 353.101 273 353.401 273.6C353.101 273.9 352.501 274.2 352.201 274.8C350.701 273.6 348.901 272.4 347.101 271.5C348.301 270.3 348.901 269.4 349.801 268.8ZM346.501 288.3L351.001 285.6C351.301 285.6 351.301 285.3 351.601 285.3C351.901 285.6 352.201 286.2 352.501 286.5C351.001 287.7 349.501 289.5 348.301 290.7C347.401 290.1 346.801 289.2 346.501 288.3V288.3ZM345.001 285C346.201 284.7 347.401 284.1 348.301 283.8C348.901 283.5 349.801 283.2 350.401 282.9C350.401 283.5 350.701 283.8 351.001 284.4C350.701 284.7 350.401 284.7 350.101 285C348.601 285.9 347.401 286.8 345.901 288C345.601 286.8 345.301 285.9 345.001 285ZM344.401 280.5C344.401 279.9 344.401 279.6 344.701 279C346.501 279.6 348.601 279.9 350.701 279.9V281.4C349.801 281.7 348.901 282 348.001 282.6C347.101 282.9 345.901 283.2 345.001 283.8C344.401 282.9 344.401 281.7 344.401 280.5V280.5ZM345.301 275.7C346.501 276.3 348.001 276.9 349.201 277.5C349.801 277.8 350.101 278.1 350.701 278.1C350.701 278.4 350.401 278.7 350.401 279C349.801 279 349.501 278.7 348.901 278.7C347.401 278.4 345.901 278.1 344.401 278.4C344.701 277.5 344.701 276.6 345.301 275.7ZM347.101 271.8C348.601 273 350.101 274.5 351.901 275.4C351.601 276 351.301 276.3 351.001 276.9C350.701 276.9 350.401 276.6 350.101 276.6C348.601 276 346.801 275.4 345.301 274.8C345.901 273.6 346.501 272.7 347.101 271.8V271.8ZM348.601 291.3C350.101 290.1 351.901 288.6 353.101 287.1L354.001 288C353.401 288.6 353.101 289.2 352.801 289.8C351.901 290.7 351.301 291.9 350.401 292.8C349.801 292.5 349.201 291.9 348.601 291.3V291.3ZM359.101 296.1C359.401 294 359.701 292.2 359.701 290.1H360.301C360.001 292.2 360.001 294.3 360.301 296.1H359.101ZM370.201 292.2C369.001 290.7 367.501 289.2 366.301 287.7C366.901 287.1 367.501 286.5 367.801 285.9C369.301 287.1 371.101 288.3 372.901 289.5C372.001 290.1 371.101 291.3 370.201 292.2V292.2Z" fill="#1B2522"/>
<path d="M359.701 271.8C364.501 271.8 368.401 275.7 368.401 280.5C368.401 285.3 364.501 289.2 359.701 289.2C354.901 289.2 351.001 285.3 351.001 280.5C351.001 275.7 354.901 271.8 359.701 271.8Z" fill="black"/>
<path d="M354.901 273C356.701 273 358.201 274.5 358.201 276.3C358.201 278.1 356.701 279.6 354.901 279.6C353.101 279.6 351.601 278.1 351.601 276.3C351.601 274.5 353.101 273 354.901 273ZM365.701 285.3C366.901 285.3 367.501 286.2 367.501 287.1C367.501 288 366.601 288.9 365.701 288.9C364.801 288.9 363.901 288 363.901 287.1C363.901 286.2 364.801 285.3 365.701 285.3Z" fill="white"/>
<path d="M360 249.3C342.3 249.3 328.2 264.9 328.2 283.8C328.2 302.7 342.3 318.3 360 318.3C377.7 318.3 391.8 302.7 391.8 283.8C391.8 264.9 377.4 249.3 360 249.3ZM387.3 288.6C384.3 290.4 373.2 296.7 360.9 296.1C348.6 295.5 337.5 288.6 335.4 287.4C333.3 286.2 331.5 284.1 331.5 284.1C331.5 284.1 334.2 278.4 340.2 274.2C346.2 270.3 354.6 266.1 367.2 269.1C379.8 272.1 387 279 391.5 285C391.5 285.3 390 286.8 387.3 288.6Z" fill="#FBB98F"/>
<path d="M333 275.1C346.2 264.3 362.1 262.2 378 267.3C378.6 267.6 378.9 266.7 378.3 266.4C363.3 259.8 344.4 263.7 332.7 274.8C332.4 274.8 332.7 275.1 333 275.1V275.1Z" fill="#F0B399"/>
<path d="M394.501 287.4C390.001 276 374.101 268.2 362.401 267.6C350.101 267 337.501 272.4 331.201 283.2C330.901 283.2 330.301 283.8 330.601 284.1C330.601 284.4 330.301 284.4 330.301 284.7C330.001 285.3 330.901 285.9 331.201 285.3C331.201 285.3 331.201 285 331.501 285C346.501 300 376.201 302.1 391.501 286.2C392.101 286.8 392.701 287.4 393.601 288C393.901 288.6 394.801 288.3 394.501 287.4V287.4ZM360.601 295.2C349.801 294.9 340.501 290.1 332.101 284.1C338.701 273.3 351.301 267.6 363.901 269.7C369.301 270.6 374.701 272.7 379.501 275.7C384.001 278.4 387.001 282.3 390.601 285.6C380.701 291.3 372.301 295.5 360.601 295.2V295.2Z" fill="#1B1929"/>
<path d="M201 247.5C201.3 246.6 201.9 245.7 202.5 245.1C202.8 244.5 203.4 243.6 204 243C204.6 242.4 205.2 241.8 206.1 241.2C207.6 238.5 211.2 236.4 213.6 234.9C216.3 233.4 219 232.2 222.3 232.2C225.3 231.6 228.6 231.6 231 232.8C232.2 232.8 233.1 233.1 234 233.7C237.3 233.4 240.9 234.3 243.9 234.9C248.1 235.8 252.3 236.7 256.2 238.5C260.4 238.5 264.6 238.8 268.5 240L269.1 240C269.4 240 269.7 240.3 269.7 240.3L270 240.3C270.3 240.3 270.6 240.6 270.9 240.9C271.2 241.2 270.9 241.8 270.9 242.1L270.9 242.4C270.9 243 270.9 243.6 270.6 244.2C270.6 246 270.3 247.5 269.1 249C269.1 249.3 269.1 249.6 268.8 249.9C268.5 251.4 268.2 253.2 266.7 254.1C266.1 254.7 265.2 255 264.3 255C264 255 263.7 255 263.4 254.7L261.6 254.7C259.8 255.3 257.4 254.7 255.9 254.4C254.1 254.1 252.3 253.5 250.8 252.6C245.4 251.7 240.3 250.2 234.9 249C230.1 247.8 222.9 247.8 218.7 245.1C216.6 245.4 214.8 245.7 212.7 245.7C211.8 245.7 210.6 246 209.4 245.7C208.8 245.7 207.9 245.7 207.3 245.1C207.3 245.1 207 245.1 207 244.8L206.7 244.8L205.5 246C204.6 246.9 203.4 248.1 201.9 248.4C201.6 249 201 248.4 201 247.5V247.5Z" fill="black"/>
<path d="M263.1 249C262.8 247.2 262.5 245.4 261.9 243.9C261.9 243.3 262.5 243 262.8 243.6C264.9 246.6 265.5 252 263.4 255.3C263.1 255.9 262.5 255.6 262.5 255C262.8 252.6 263.1 250.8 263.1 249V249ZM252.9 239.4C256.8 241.8 259.2 247.2 259.2 251.4C259.2 252 258.3 252.3 258.3 251.7C257.7 249.6 257.1 247.8 256.2 246C255.3 243.9 253.5 242.4 252.3 240.3C251.4 239.7 252.3 239.1 252.9 239.4V239.4ZM243 237.3C249.6 239.7 254.4 246.9 255.6 253.2C255.6 253.8 255 253.8 254.7 253.5C253.5 250.5 252 247.5 249.6 245.1C247.5 242.4 244.8 240.9 242.1 238.5C241.5 238.2 242.4 237 243 237.3V237.3ZM228.3 234.9C235.5 236.7 242.7 242.7 245.7 249C246 249.6 244.8 250.2 244.5 249.6C242.1 246.6 239.7 243.9 236.7 241.5C234 239.4 230.7 237.9 227.7 236.1C227.1 235.8 227.4 234.9 228.3 234.9ZM202.2 246C207 240.6 213.6 233.1 221.7 234C222.3 234 222.3 234.9 221.7 234.9C213.9 235.5 208.8 242.4 202.8 246.6C202.2 246.9 201.6 246.3 202.2 246Z" fill="#0F0F0F"/>
<path d="M272.7 241.8C272.4 240.9 271.2 240.9 270.9 241.8C270 245.1 270 249 267.3 251.7C265.5 253.8 262.8 254.1 260.1 253.8C261 249.3 260.7 242.7 257.7 239.1C257.1 238.5 256.2 238.8 256.5 239.7C256.5 242.1 257.7 244.5 258 246.9C258.3 249.3 258.6 251.4 258.6 253.8C258.3 253.8 258 253.8 257.7 253.5C256.8 247.5 253.8 241.2 249.3 237C256.2 238.5 263.1 239.7 270 240.3C270.3 240.3 270.6 239.7 270.3 239.7C262.5 237 254.4 235.5 246.3 233.7C239.1 232.2 231 229.5 223.5 229.2C217.2 228.9 212.7 231.9 208.5 235.8C204 240 199.2 245.1 196.2 250.5L195.6 251.1C195.3 251.4 195 252 195.3 252.3C195.3 252.3 195.3 252.6 195 252.6C194.4 253.8 195.9 254.7 196.8 253.8C197.1 253.8 197.4 253.8 197.7 253.5C201.9 251.4 205.2 249.3 210 248.7C213.9 248.1 218.1 248.4 222 249C230.7 250.2 238.8 252.9 246.9 255.3C253.2 257.1 261.6 260.4 267.6 255.9C272.7 252.9 273.3 246.6 272.7 241.8V241.8ZM232.5 245.7C231 245.4 229.2 245.1 227.4 244.8C227.7 241.5 226.5 237.9 225 234.9C227.1 236.7 229.2 238.5 231 240.6C232.8 242.4 233.7 244.8 235.5 246.6C234.3 246.3 233.4 246 232.5 245.7V245.7ZM210 238.5C213.6 235.2 217.5 233.4 222 232.8C222.6 235.2 223.8 237.6 224.1 240L225 244.5C224.1 244.5 222.9 244.2 222 244.2C220.5 241.5 218.1 238.8 215.1 237.9C214.5 237.6 214.2 238.5 214.5 239.1C215.7 240.3 217.2 241.5 218.4 242.7C218.7 243.3 219 243.6 219.6 244.2C213.9 243.9 208.2 244.5 203.4 246.6C205.2 243.6 207.3 240.9 210 238.5V238.5ZM255.6 252.9C255 252.6 254.4 252.6 253.8 252.3C252.6 252 251.1 251.4 249.9 251.1C247.5 245.7 243.6 240.3 238.8 236.7C238.2 236.4 237.6 237 237.9 237.3C241.5 241.5 244.5 246 247.8 250.5C244.5 249.3 241.2 248.4 238.2 247.2C237.6 243.9 234.6 240.6 232.5 238.2C230.4 236.1 228 234 225.3 232.5C226.5 232.5 227.7 232.8 229.2 232.8C235.2 233.7 241.2 235.2 247.2 236.4L247.2 236.7C249.3 240 251.7 243.3 253.5 246.6C254.1 248.7 254.7 250.8 255.6 252.9V252.9Z" fill="black"/>
<path d="M399 247.5C398.7 246.6 398.1 245.7 397.5 245.1C397.2 244.5 396.6 243.6 396 243C395.4 242.4 394.8 241.8 393.9 241.2C392.4 238.5 388.8 236.4 386.4 234.9C383.7 233.4 381 232.2 377.7 232.2C374.7 231.6 371.4 231.6 369 232.8C367.8 232.8 366.9 233.1 366 233.7C362.7 233.4 359.1 234.3 356.1 234.9C351.9 235.8 347.7 236.7 343.8 238.5C339.6 238.5 335.4 238.8 331.5 240L330.9 240C330.6 240 330.3 240.3 330.3 240.3L330 240.3C329.7 240.3 329.4 240.6 329.1 240.9C328.8 241.2 329.1 241.8 329.1 242.1L329.1 242.4C329.1 243 329.1 243.6 329.4 244.2C329.4 246 329.7 247.5 330.9 249C330.9 249.3 330.9 249.6 331.2 249.9C331.5 251.4 331.8 253.2 333.3 254.1C333.9 254.7 334.8 255 335.7 255C336 255 336.3 255 336.6 254.7L338.4 254.7C340.2 255.3 342.6 254.7 344.1 254.4C345.9 254.1 347.7 253.5 349.2 252.6C354.6 251.7 359.7 250.2 365.1 249C369.9 247.8 377.1 247.8 381.3 245.1C383.4 245.4 385.5 245.7 387.3 245.7C388.2 245.7 389.4 246 390.6 245.7C391.2 245.7 392.1 245.7 392.7 245.1C392.7 245.1 393 245.1 393 244.8L393.3 244.8L394.5 246C395.4 246.9 396.6 248.1 398.1 248.4C398.4 249 399 248.4 399 247.5V247.5Z" fill="black"/>
<path d="M336.9 249C337.2 247.2 337.5 245.4 338.1 243.9C338.1 243.3 337.5 243 337.2 243.6C335.1 246.6 334.5 252 336.6 255.3C336.9 255.9 337.5 255.6 337.5 255C337.2 252.6 336.9 250.8 336.9 249V249ZM347.1 239.4C343.2 241.8 340.8 247.2 340.8 251.4C340.8 252 341.7 252.3 341.7 251.7C342.3 249.6 342.9 247.8 343.8 246C344.7 243.9 346.5 242.4 347.7 240.3C348.6 239.7 347.7 239.1 347.1 239.4V239.4ZM357 237.3C350.4 239.7 345.6 246.9 344.4 253.2C344.4 253.8 345 253.8 345.3 253.5C346.5 250.5 348 247.5 350.4 245.1C352.5 242.4 355.2 240.9 357.9 238.5C358.5 238.2 357.6 237 357 237.3V237.3ZM371.7 234.9C364.5 236.7 357.3 242.7 354.3 249C354 249.6 355.2 250.2 355.5 249.6C357.9 246.6 360.3 243.9 363.3 241.5C366 239.4 369.3 237.9 372.3 236.1C372.9 235.8 372.6 234.9 371.7 234.9ZM397.8 246C393 240.6 386.4 233.1 378.3 234C377.7 234 377.7 234.9 378.3 234.9C386.1 235.5 391.2 242.4 397.2 246.6C397.8 246.9 398.4 246.3 397.8 246Z" fill="#0F0F0F"/>
<path d="M331.8 255.9C337.8 260.4 346.2 257.1 352.5 255.3C360.9 252.9 369 249.9 377.4 249C381.3 248.4 385.5 248.1 389.4 248.7C394.2 249.3 397.5 251.4 401.7 253.5C402 253.8 402.3 253.8 402.6 253.8C403.5 254.7 405 253.8 404.4 252.6C404.4 252.6 404.4 252.3 404.1 252.3C404.1 252 404.1 251.4 403.8 251.1L403.2 250.5C400.2 245.1 395.4 240 390.9 235.8C386.7 231.9 382.2 228.9 375.9 229.2C368.4 229.5 360.3 232.2 353.1 233.7C345 235.5 336.9 237 329.1 239.7C328.5 240 328.8 240.3 329.4 240.3C336.3 239.7 343.2 238.5 350.1 237C345.6 241.2 342.6 247.5 341.7 253.5C341.4 253.5 341.1 253.5 340.8 253.8C341.1 251.4 341.1 249.3 341.4 246.9C341.7 244.5 342.9 242.1 342.9 239.7C342.9 239.1 342 238.8 341.7 239.1C338.7 242.7 338.4 249.3 339.3 253.8C336.6 254.1 334.2 253.8 332.1 251.7C329.7 249 329.4 245.1 328.5 241.5C328.2 240.6 327 240.6 326.7 241.5C326.7 246.6 327.3 252.9 331.8 255.9V255.9ZM364.5 246.3C366 244.5 367.2 242.1 369 240.3C370.8 238.2 372.9 236.4 375 234.6C373.5 237.6 372.3 241.5 372.6 244.5C370.8 244.8 369 245.1 367.5 245.4C366.6 246 365.7 246.3 364.5 246.3V246.3ZM396.9 246.3C392.1 244.2 386.1 243.6 380.7 243.9C381 243.3 381.3 243 381.9 242.4C383.1 240.9 384.6 240 385.8 238.8C386.1 238.5 386.1 237.6 385.2 237.6C382.2 238.5 379.8 241.2 378.3 243.9C377.4 243.9 376.2 244.2 375.3 244.2L376.2 239.7C376.8 237.3 377.7 234.9 378.3 232.5C382.5 233.1 386.4 234.9 390.3 238.2C392.7 240.9 394.8 243.6 396.9 246.3V246.3ZM346.8 246.9C348.6 243.3 351 240.3 353.1 237L353.1 236.7C359.1 235.5 365.1 234 371.1 233.1C372.3 232.8 373.8 232.8 375 232.8C372.3 234.3 369.9 236.4 367.8 238.5C365.7 240.9 362.7 244.2 362.1 247.5C358.8 248.4 355.5 249.6 352.5 250.8C355.5 246.3 358.8 242.1 362.4 237.6C362.7 237 362.1 236.7 361.5 237C356.7 240.6 352.8 246 350.4 251.4C349.2 251.7 347.7 252.3 346.5 252.6C345.9 252.9 345.3 252.9 344.7 253.2C345.3 250.8 345.9 248.7 346.8 246.9V246.9Z" fill="black"/>
<path d="M315.18 322.95C316.86 325.71 323.1 333.78 324.45 337.65C325.8 341.52 324.06 347.31 320.01 348.48C315.96 349.65 309.18 347.31 308.22 347.91C307.26 348.48 302.61 354.09 300.48 353.7C298.35 353.31 292.56 347.31 291.39 347.31C290.22 347.31 285 348.66 282.48 348.66C279.96 348.66 273.78 346.53 274.56 341.13C275.34 335.7 281.91 324.51 283.26 322.95C284.61 321.39 287.7 315.99 288.48 312.69C289.26 309.39 290.22 291.6 290.61 287.55C291 283.5 294.66 278.64 298.35 278.28C302.04 277.89 308.4 280.59 309 286.98C309.57 293.37 310.74 306.12 311.31 311.34C311.88 316.56 313.05 319.47 315.18 322.95V322.95Z" fill="#FBB98F"/>
<path d="M292.861 260.28C290.341 270.78 289.981 282 288.841 292.71C287.641 304.2 285.421 316.05 285.571 327.6C285.571 328.53 287.011 328.77 287.221 327.81C289.561 317.25 289.861 306.03 290.941 295.29C292.111 283.83 294.241 271.92 293.881 260.4C293.881 259.86 293.011 259.68 292.861 260.28V260.28Z" fill="#FFA573"/>
<path d="M283.38 321.57C280.29 325.68 277.68 330.18 275.43 334.8C273.96 337.8 272.16 341.31 273.12 344.76C274.71 350.43 281.91 352.23 286.62 349.5C288.03 348.69 287.4 346.53 285.81 346.5C283.05 346.47 279.87 347.34 277.65 345C275.01 342.18 277.62 337.11 278.79 334.29C280.53 330.12 282.63 326.13 284.28 321.93C284.49 321.36 283.68 321.15 283.38 321.57V321.57Z" fill="#FFA573"/>
<path d="M282.93 344.94C291.45 344.31 293.07 355.05 301.14 355.29C308.07 355.5 308.64 345.06 315.21 345.39C315.99 345.42 316.23 344.34 315.6 343.98C308.13 339.57 306.75 352.56 299.88 351.75C295.8 351.27 292.92 345.27 289.26 343.56C286.77 342.39 284.97 342.48 282.57 343.62C281.91 343.89 282.24 345 282.93 344.94V344.94Z" fill="#FFA573"/>
<path d="M312.87 349.8C318.48 351.06 325.02 349.32 326.34 343.08C327 339.96 325.95 336.87 324.33 334.23C321.66 329.91 318.24 326.25 315.72 321.78C315.3 321.03 314.25 321.42 314.19 322.2C313.86 327.21 317.58 330.69 320.25 334.56C322.71 338.13 324.84 343.05 320.7 346.56C318.81 348.18 315.21 347.88 312.9 348.33C312.12 348.45 312.15 349.62 312.87 349.8V349.8Z" fill="#FFA573"/>
<path d="M440.4 174.6C439.5 171.6 438.6 168.3 437.4 165.3C437.1 149.1 423 132.3 405.9 123.3C407.4 123 408.3 121.2 407.1 119.7C398.7 108.9 383.7 107.4 372 112.8L371.7 112.5C367.8 104.4 361.8 97.5 355.5 92.4C354.3 91.2 352.2 93 353.4 94.2C356.7 97.5 359.4 101.1 361.5 105C360.9 104.7 360.3 104.4 360 104.1C345.9 86.1 317.7 78 296.4 80.7C294.3 81 294 83.7 295.8 84.3C298.2 85.2 300.9 86.1 303.6 87H295.8C287.7 85.8 279.3 85.8 271.2 86.7C225.6 86.4 177.3 108.9 162.6 152.1C151.2 170.1 145.8 191.1 150 212.4C149.1 227.4 150.9 242.7 156 255.6C156.6 260.7 157.8 266.1 159.6 270.9C162.9 292.8 170.1 314.4 183.3 332.4C184.2 333.9 186.3 332.7 185.7 331.2C182.4 324 179.4 316.8 176.7 309.9C177.3 309.6 177.9 309.3 178.2 308.4C179.1 311.7 179.7 315 180.9 318C181.2 318.6 182.4 318.6 182.4 317.7C182.4 310.5 182.4 303.3 182.1 296.1C182.4 298.2 182.7 300.3 183 302.7C183.3 303.9 185.1 303.6 185.1 302.4C184.5 289.8 184.5 277.2 185.1 264.9C186 258 186.9 250.8 188.1 243.9C188.7 243 189 241.8 189.6 240.9C186.6 252.9 184.8 265.5 186.3 277.2C186.3 278.1 187.8 278.4 188.1 277.5C194.1 260.1 195.9 241.5 201.6 223.8C203.7 217.5 205.8 211.5 208.2 205.5C210.6 202.8 213.3 199.8 216 197.1C217.5 196.2 218.7 195.3 220.2 194.4C208.5 209.1 200.1 225.9 197.4 242.1C197.1 243 198.6 243.6 199.2 242.7C204 234.9 208.5 227.1 213 219.6C213.3 219.9 213.9 219.9 214.5 219.6C216 218.4 217.8 217.2 219.3 216.3C219.9 216.6 220.5 216.6 221.1 216.3C224.7 214.5 228.3 212.4 232.2 210.6C231.3 211.8 232.8 213.6 234.3 213.3C245.7 211.5 256.5 207.6 267.3 203.1C262.2 206.7 257.1 210.6 252.3 214.8C248.4 217.2 244.8 219.9 241.2 223.2C239.7 224.7 241.5 226.8 243.3 225.9C261.9 216 282.6 207.6 302.7 198C289.5 205.5 276 211.8 262.5 218.7C261.3 219.3 262.2 221.4 263.4 220.8C274.8 216.6 287.1 211.8 298.8 206.4C294.6 210 290.1 213.9 286.5 217.8C284.7 219.3 282.6 220.5 280.8 222C278.7 223.8 281.1 227.1 283.2 226.2C286.8 225 290.7 223.8 294.6 222.3C294.9 222.6 295.5 222.6 296.1 222.6C313.8 219.3 331.2 207.3 345 196.2C347.4 194.4 349.5 192.3 351.6 190.2C347.4 195.3 342.3 199.8 336 203.7C334.2 204.9 335.7 207.9 337.8 206.7C348.9 201 359.4 191.7 366.9 180.9C369.9 197.4 378.3 213 391.5 221.7C397.2 230.4 402.9 239.7 409.2 248.4C412.5 256.5 415.2 264.6 417.3 273C417.6 275.4 417.9 277.8 417.9 280.2C418.8 298.8 413.1 315.3 405.6 332.1C404.7 334.2 407.1 336.3 408.9 334.5C412.8 330.6 416.1 326.1 418.5 321.3C419.1 321.6 419.7 321.3 420.3 320.7C420.9 321.3 422.1 321.3 422.7 320.1C423.9 318 425.1 315.6 426.3 313.5C426.6 313.2 426.9 312.9 426.9 312.6V312C433.5 297.3 438.3 279.3 440.4 262.8C441 260.4 441.6 258.3 441.9 256.2C442.5 256.2 443.1 255.6 443.1 255C444 251.7 444.6 248.4 444.9 244.8C445.8 240 446.4 235.2 446.4 230.4C446.4 230.7 446.7 231 446.7 231.6C447 233.1 449.4 232.8 449.4 231.3C450.9 213 448.2 192.3 440.4 174.6V174.6ZM191.7 121.8C190.8 122.7 189.6 123.3 188.7 124.2C193.2 119.7 198 115.8 203.4 112.2C199.2 115.2 195.3 118.5 191.7 121.8ZM269.7 194.1C259.5 198.3 249.3 202.5 239.1 207C254.4 198.9 269.4 190.8 284.1 182.4L269.7 194.1ZM259.2 177.6C251.1 182.1 243 186.9 235.2 192C245.4 183.9 255.3 176.1 267.3 170.4C273 167.7 279 165 285 162.6C276.6 167.7 267.9 172.8 259.2 177.6Z" fill="black"/>
<path d="M375.001 146.1C363.901 184.8 327.601 198.6 294.901 214.5C294.001 215.1 294.601 216.6 295.501 216.3C329.701 204.6 368.101 184.8 375.901 146.4C376.201 145.5 375.301 145.2 375.001 146.1V146.1ZM368.401 144C359.101 162.9 339.601 171.3 321.601 180.6C301.501 190.8 281.401 200.7 261.901 211.8C260.701 212.4 261.901 213.9 262.801 213.3C287.401 202.2 311.401 189.6 335.101 177C349.801 169.2 363.901 160.8 369.601 144.6C370.201 143.7 369.001 143.1 368.401 144V144ZM360.601 145.5C340.201 159.6 318.001 169.8 294.301 177.3C293.401 177.6 293.701 178.8 294.601 178.8C318.901 172.8 341.101 161.7 361.201 147C362.401 146.4 361.501 144.9 360.601 145.5V145.5ZM325.201 147C282.001 149.4 239.701 167.1 208.201 196.8C207.601 197.4 208.501 198.3 209.101 197.7C243.001 169.8 281.401 153 325.201 147.6C326.101 147.6 326.101 146.7 325.201 147ZM293.101 171.9C264.901 180.3 237.601 195.9 216.001 216C215.101 216.6 216.301 217.8 217.201 217.2C240.901 198.3 265.201 184.8 293.401 173.7C294.601 173.4 294.301 171.6 293.101 171.9V171.9ZM221.401 168.9C199.501 196.5 185.701 232.2 184.801 267.9C184.801 269.1 186.301 269.1 186.601 267.9C191.401 231.9 202.501 200.4 223.201 170.4C223.501 169.2 222.001 168 221.401 168.9ZM196.801 190.5C180.301 219.3 173.101 253.2 178.501 285.9C178.801 286.8 180.301 286.8 180.301 285.6C177.901 252.3 183.001 221.1 198.001 191.1C198.301 190.2 197.401 189.6 196.801 190.5ZM180.901 311.7C172.501 282 168.601 253.2 173.101 222.6C173.101 221.7 171.901 221.4 171.901 222.3C166.801 252.3 167.701 283.8 178.801 312.3C179.401 313.5 181.201 312.9 180.901 311.7ZM197.101 129.9C162.901 157.2 144.601 205.8 156.001 248.7C156.301 249.6 157.501 249.3 157.501 248.4C150.601 203.7 164.101 161.4 198.301 131.4C199.201 130.5 198.001 129.3 197.101 129.9V129.9ZM186.001 160.8C166.801 188.1 156.601 221.7 161.101 255C161.101 255.9 162.601 255.9 162.601 255C161.101 221.1 168.301 189.6 187.201 161.4C187.501 160.5 186.601 159.9 186.001 160.8V160.8ZM330.001 102.3C295.201 88.8 251.701 86.1 218.701 105.9C218.101 106.2 218.701 107.1 219.301 106.8C255.901 90 291.901 93.3 329.701 103.8C330.601 104.4 331.201 102.6 330.001 102.3ZM356.101 114.3C345.001 99.9 328.501 90.9 311.401 86.1C310.501 85.8 309.901 87.3 311.101 87.6C328.201 93.6 341.701 103.5 354.901 115.5C355.801 116.1 356.701 115.2 356.101 114.3ZM367.201 121.2C365.401 118.2 362.701 115.8 360.301 113.1C357.601 110.4 354.901 107.7 351.901 105.3C351.001 104.7 349.801 105.9 350.701 106.5L358.801 114.6C361.201 117 363.301 120 366.001 122.1C366.601 123 367.501 122.1 367.201 121.2V121.2ZM364.501 108.3C363.601 107.4 362.101 108.6 362.701 109.8C364.201 111.9 365.701 114.3 366.901 116.7C368.101 119.1 368.701 121.8 369.901 124.2C370.501 125.1 371.701 124.8 371.701 123.6C371.401 118.2 367.801 112.5 364.501 108.3V108.3ZM404.701 230.4C385.501 211.2 375.001 188.4 374.701 160.8C374.701 160.2 373.801 160.2 373.801 160.8C371.701 187.8 382.501 214.5 403.801 231.3C404.401 231.9 405.301 231 404.701 230.4V230.4ZM416.701 237.9C416.401 237 414.901 237.9 415.501 238.8C420.001 248.7 422.701 258.6 423.901 268.8C415.201 239.4 396.301 213.6 389.701 183.3C389.401 182.1 387.901 182.7 387.901 183.9C390.301 198.6 396.001 211.5 402.301 224.7C410.701 242.1 417.001 259.8 424.201 277.5C424.501 290.1 422.701 303 418.801 316.2C418.501 317.1 420.001 317.7 420.301 316.8C432.001 291.3 429.301 262.2 416.701 237.9V237.9ZM432.601 206.1C432.301 205.2 431.101 205.5 431.101 206.4C433.501 220.2 434.701 233.7 434.101 247.5C433.201 240.9 431.401 234.3 429.001 227.7C428.701 226.8 427.501 227.1 427.801 228C433.201 249.6 433.501 269.7 428.701 291.6C428.401 292.8 430.201 293.1 430.501 292.2C433.801 281.7 435.301 270.9 435.301 260.1C438.601 242.4 438.001 223.8 432.601 206.1ZM423.901 151.2C423.301 150 421.501 151.2 422.101 152.1C434.701 175.8 439.801 200.1 441.601 226.5C441.601 227.7 443.701 227.7 443.701 226.5C444.901 200.4 436.801 174.3 423.901 151.2V151.2ZM414.601 138.3C405.901 129 394.201 120.3 380.701 123.9C379.801 124.2 380.101 125.4 381.001 125.1C394.201 122.4 403.801 131.7 413.401 139.2C414.301 140.1 415.501 138.9 414.601 138.3V138.3ZM404.101 187.8C403.501 186.9 402.301 187.8 402.901 188.4C411.601 203.4 416.701 219 420.601 235.8C420.901 236.7 422.401 236.4 422.101 235.5C420.001 218.7 413.401 202.5 404.101 187.8V187.8ZM285.601 113.7C246.601 117.3 210.901 138.9 192.001 173.7C191.701 174.3 192.301 174.6 192.601 174C212.701 140.4 246.301 117.9 285.601 114.6C286.201 114.6 286.201 113.7 285.601 113.7V113.7Z" fill="black"/>
<path d="M353.4 139.2C332.4 152.7 310.5 162.9 286.8 170.7C286.2 171 286.5 171.9 287.1 171.9C311.1 165.6 333.6 154.5 353.7 140.1C354.6 139.8 354 138.9 353.4 139.2ZM363.9 142.5C354.6 162.9 325.2 172.5 305.7 179.7C305.1 180 305.4 180.9 306 180.6C319.8 177 332.7 171.3 345 164.1C353.7 159 362.4 153.3 365.4 143.1C365.4 142.5 364.2 141.9 363.9 142.5V142.5ZM253.5 138.3C226.8 151.8 206.7 176.1 196.5 204C196.2 204.9 197.4 205.2 197.7 204.3C209.4 176.4 228.9 155.7 254.1 139.8C255.3 138.9 254.4 137.7 253.5 138.3V138.3ZM289.8 118.8C267.3 119.1 245.7 126.9 227.7 140.4C227.4 140.7 227.7 141.3 228.3 141C241.2 132.9 254.7 127.2 268.8 123.6C247.2 132.9 228 147 211.5 163.5C211.2 163.8 211.8 164.4 212.1 164.1C229.5 147.3 249.3 134.7 270.9 123.6C271.2 123.6 271.2 123 271.2 122.7C277.2 121.2 283.5 120.3 290.1 119.4C290.7 120 290.7 118.8 289.8 118.8V118.8ZM315.9 138.6C292.8 141.3 269.4 145.2 249.9 158.4C249.3 158.7 249.9 159.6 250.5 159.3C270.9 147.6 293.4 143.7 316.2 139.5C316.5 139.5 316.5 138.6 315.9 138.6V138.6ZM402.3 185.1C394.8 173.1 388.2 161.1 384.3 147.6C384 146.7 382.8 147 383.1 147.9C386.4 161.7 392.1 175.2 401.4 186C401.7 186.3 402.6 185.7 402.3 185.1ZM408.9 183.9C403.8 179.1 400.8 171.6 397.5 165.6C393.9 159.3 390.3 152.7 386.7 146.4C386.4 145.8 385.8 146.4 385.8 147C389.4 155.1 393.3 162.9 397.5 170.7C400.2 175.8 402.6 182.1 408.3 184.8C408.6 184.8 409.2 184.2 408.9 183.9V183.9ZM416.7 184.8C411 172.5 402.6 161.1 394.2 150.3C393.6 149.7 392.4 150.6 393 151.2C401.1 162.3 408.3 173.7 415.5 185.1C415.8 186.3 417 185.7 416.7 184.8ZM386.7 135C386.1 134.4 385.5 135.3 385.8 135.9C403.5 157.2 421.2 177 430.5 203.7C430.8 204.3 431.7 204 431.7 203.4C424.8 176.1 405.9 153.9 386.7 135V135ZM432 190.2C425.7 172.2 414.3 155.1 400.2 142.2C399.6 141.6 399 142.5 399.6 142.8C412.5 157.8 422.1 173.1 430.5 190.8C430.8 191.7 432.3 191.1 432 190.2V190.2ZM288.3 134.4C267.9 136.2 248.4 145.5 234 159.9C233.7 160.2 234.3 160.8 234.6 160.5C251.1 147.9 268.2 140.1 288.3 135.9C289.2 135.6 289.2 134.4 288.3 134.4ZM280.2 141.3C270 143.4 260.1 147.6 251.4 152.7C250.8 153 251.4 153.9 252 153.6C261.6 149.7 270.9 146.1 280.8 142.5C281.1 142.2 280.8 141 280.2 141.3V141.3ZM336.9 145.5C321 155.1 302.1 153.9 285.6 160.8C284.7 161.1 285.3 162.9 286.2 162.6C302.7 155.7 322.8 157.8 337.5 146.7C338.1 146.1 337.5 145.2 336.9 145.5V145.5ZM288.9 111C261.6 104.7 228.9 117 205.2 130.5C204.6 130.8 205.2 132 205.8 131.7C231 120 260.1 108 288.3 112.5C289.5 112.5 290.1 111.3 288.9 111ZM271.8 105C253.5 105.6 235.8 109.8 220.2 119.7C219.6 120 220.2 120.9 220.8 120.6C237.3 112.8 253.5 107.4 271.8 106.5C272.7 106.5 272.7 105 271.8 105V105ZM260.1 99.9C252 99.3 243.6 99.6 236.1 102.9C235.2 103.2 235.5 104.4 236.4 104.4C244.2 102.6 252 101.4 259.8 102C261 101.7 261 99.9 260.1 99.9V99.9Z" fill="#0F0F0F"/>
<path d="M254 370C254 370 254.057 377.439 257.154 382.974C257.154 382.974 269.429 396.453 285.284 407.969C285.824 408.385 308.697 411.42 314.721 409.189C314.721 409.189 338.475 393.745 343.674 382.051C343.674 382.051 345.55 376.279 344.839 372.321C344.839 372.321 326.825 377.558 318.329 378.867C309.833 380.206 288.154 378.867 277.385 377.171C266.587 375.475 256.728 371.458 254 370Z" fill="black"/>
<path d="M253.5 371.5C253.5 371.5 257 377 264.352 381.731C271.703 386.461 281.776 392.29 297.5 392.5C313.224 392.71 329.559 386.649 333.5 383.5C339 380.5 345.5 373.419 345.5 373.419C345.5 373.419 306.241 382.06 299.172 381.731C290.5 381.731 264.352 375.5 264.352 375.5L253.5 371.5Z" fill="#FDF6F3"/>
<path d="M346.477 372.353C346.934 371.771 346.477 370.928 345.677 370.957C340.791 372.469 337.79 373.079 334.019 374.125C330.647 375.056 307.988 377.061 300.045 377.003C273.844 376.422 261.786 372.149 254.042 370.027C253.414 369.853 252.785 370.551 253.071 371.016C252.471 374.678 254.042 378 256 383C263.9 394.24 273.672 401.969 283.53 408.509C290.53 413.13 309.903 412.374 314.646 410.718C321.389 408.131 328.304 401.504 332.819 397.116C336.99 393.046 342.934 385.49 344.905 382.293C345.734 381.014 346.219 379.473 346.534 377.991C346.905 376.48 347.391 373.98 346.477 372.353ZM329.671 395.189C322.757 401.7 312.956 404.364 312.527 404.393C305.86 407.492 291.5 406.535 287.288 404.393C283.53 402.438 283.569 402.998 287.288 404.393C275.858 398.58 277.763 398.58 272.049 395.189C267.506 391.295 264 388.5 259 382.583C257.095 379.204 255.5 376.5 254.842 372.178C268.272 379.357 285.359 382.467 300.331 382.583C308.474 382.641 316.418 381.537 324.332 379.909C330.418 378.66 338.733 377.323 344.334 373.864C344.248 374.794 344.276 375.782 344.134 376.683C343.876 378.311 343.815 382.052 329.671 395.189Z" fill="#BF806B"/>
<circle cx="318" cy="429" r="2" fill="#806A6A"/>
</g>
<defs>
<linearGradient id="paint0_linear_303_592" x1="300" y1="463.5" x2="300" y2="548" gradientUnits="userSpaceOnUse">
<stop stop-color="#E6864E" stop-opacity="0.35"/>
<stop offset="1" stop-color="#FFD2C2"/>
</linearGradient>
<clipPath id="clip0_303_592">
<rect width="600" height="600" fill="white"/>
</clipPath>
</defs>
</svg>
