<svg width="54" height="54" viewBox="0 0 54 54" fill="none" xmlns="http://www.w3.org/2000/svg">
<path fill-rule="evenodd" clip-rule="evenodd" d="M27 5.75H26.9596C25.0664 5.75 23.5902 5.74999 22.3961 5.83842C21.1819 5.92832 20.186 6.11335 19.2653 6.52116C17.5336 7.28825 16.088 8.58211 15.1343 10.2185C14.6274 11.0885 14.3335 12.058 14.11 13.2548C13.8903 14.4318 13.7273 15.899 13.5182 17.7806L13.5138 17.8208L12.8917 23.4189C12.6951 25.1887 12.6077 25.928 12.3741 26.62C12.1405 27.312 11.762 27.953 10.8459 29.4799L7.70989 34.7065L7.67239 34.769L7.67237 34.769C7.30177 35.3865 6.96733 35.9438 6.7731 36.4121C6.56959 36.9028 6.40084 37.5732 6.77578 38.2354C7.15072 38.8976 7.81235 39.0978 8.33784 39.1758C8.83936 39.2502 9.48928 39.2501 10.2095 39.25L10.2824 39.25H43.7176L43.7905 39.25C44.5107 39.2501 45.1606 39.2502 45.6621 39.1758C46.1876 39.0978 46.8493 38.8976 47.2242 38.2354C47.5991 37.5732 47.4304 36.9028 47.2269 36.4121C47.0326 35.9438 46.6982 35.3865 46.3276 34.769L46.2901 34.7065L43.1541 29.4799C42.238 27.953 41.8595 27.312 41.6259 26.62C41.3923 25.928 41.3049 25.1887 41.1082 23.4189L40.8386 20.9925C40.7264 20.9975 40.6135 21 40.5 21C39.9174 21 39.3502 20.9336 38.8058 20.8079L39.1205 23.6398L39.1337 23.7592C39.3131 25.3743 39.4202 26.339 39.7309 27.2596C40.0417 28.1802 40.5411 29.0125 41.3773 30.4059L41.4391 30.5089L44.5751 35.7355C44.9954 36.436 45.2491 36.8641 45.3795 37.1783L45.3862 37.1947L45.3686 37.1974C45.0322 37.2473 44.5345 37.25 43.7176 37.25H10.2824C9.46547 37.25 8.96783 37.2473 8.63135 37.1974L8.61378 37.1947L8.62053 37.1783C8.75084 36.8641 9.00459 36.436 9.42488 35.7355L12.5609 30.5089L12.6227 30.4059C13.4588 29.0125 13.9583 28.1802 14.269 27.2596C14.5798 26.339 14.6869 25.3743 14.8662 23.7592L14.8662 23.7591L14.8795 23.6398L15.5015 18.0416C15.716 16.1113 15.8715 14.7176 16.0761 13.6218C16.2785 12.5374 16.5172 11.8179 16.8623 11.2255C17.6041 9.95275 18.7284 8.94641 20.0753 8.34979C20.7022 8.07212 21.4437 7.91442 22.5438 7.83295C23.6554 7.75064 25.0578 7.75 27 7.75C28.9422 7.75 30.3445 7.75064 31.4562 7.83295C32.5563 7.91442 33.2978 8.07212 33.9247 8.34979C34.1907 8.46763 34.448 8.60146 34.6955 8.75016C35.1328 8.21635 35.6423 7.74396 36.2091 7.3479C35.747 7.02831 35.2537 6.75107 34.7347 6.52116C33.814 6.11335 32.8181 5.92832 31.6039 5.83842C30.4098 5.74999 28.9336 5.75 27.0404 5.75H27ZM38.4097 9.5139C37.8076 9.8303 37.2859 10.2791 36.8835 10.8217C36.9725 10.9531 37.0573 11.0877 37.1376 11.2255C37.4828 11.8179 37.7215 12.5374 37.9239 13.6218C38.1089 14.6125 38.2537 15.8468 38.4383 17.501C39.056 17.8199 39.7569 18 40.5 18C40.502 18 40.5041 18 40.5061 18L40.4862 17.8208L40.4818 17.7806C40.2727 15.899 40.1097 14.4318 39.8899 13.2548C39.6665 12.058 39.3726 11.0885 38.8656 10.2185C38.7242 9.97593 38.5721 9.74085 38.4097 9.5139ZM45.4466 37.3876C45.4464 37.3875 45.446 37.3849 45.4459 37.3803C45.4467 37.3854 45.4467 37.3877 45.4466 37.3876ZM45.576 37.1505C45.5801 37.1482 45.5825 37.1472 45.5826 37.1473C45.5828 37.1474 45.5808 37.1485 45.576 37.1505ZM8.41734 37.1473C8.41752 37.1472 8.41989 37.1482 8.42394 37.1505C8.41919 37.1485 8.41716 37.1474 8.41734 37.1473ZM8.55406 37.3803C8.55394 37.3849 8.55356 37.3875 8.5534 37.3876C8.55324 37.3877 8.55331 37.3854 8.55406 37.3803Z" fill="#3364ED"/>
<path d="M20.48 39.7455C20.8646 41.8985 21.712 43.8009 22.8909 45.1577C24.0697 46.5145 25.5141 47.25 27 47.25C28.4859 47.25 29.9303 46.5145 31.1091 45.1577C32.288 43.8009 33.1354 41.8985 33.52 39.7455" stroke="#3364ED" stroke-width="2" stroke-linecap="round"/>
<circle cx="40.5" cy="13.5" r="5" fill="#FF3600" stroke="#3364ED"/>
</svg>
