<svg width="229" height="110" viewBox="0 0 229 110" fill="none" xmlns="http://www.w3.org/2000/svg">
<path d="M197.149 0.5L197.149 33.5" stroke="url(#paint0_linear_125_282)" stroke-width="1.35747" stroke-dasharray="1.36"/>
<path opacity="0.302734" d="M13.5747 103.149C21.0717 103.149 27.1493 97.0717 27.1493 89.5747C27.1493 82.0776 21.0717 76 13.5747 76C6.07758 76 0 82.0776 0 89.5747C0 97.0717 6.07758 103.149 13.5747 103.149Z" fill="url(#paint1_linear_125_282)"/>
<path fill-rule="evenodd" clip-rule="evenodd" d="M7.42041 89.6655C7.42041 85.9858 10.1067 83.0027 13.4204 83.0027C16.7341 83.0027 19.4204 85.9858 19.4204 89.6655C19.4204 93.3453 16.7341 96.3283 13.4204 96.3283C10.1067 96.3283 7.42041 93.3453 7.42041 89.6655ZM12.9788 92.2458L16.8593 87.9366C17.0713 87.7011 17.0713 87.3193 16.8593 87.0838C16.6473 86.8483 16.3034 86.8483 16.0913 87.0838L12.5947 90.9667L10.7444 88.912C10.5323 88.6765 10.1885 88.6765 9.97639 88.912C9.76433 89.1475 9.76433 89.5294 9.97639 89.7649L12.2106 92.2459L12.2107 92.2459C12.2438 92.2827 12.2802 92.3138 12.3187 92.3391C12.527 92.4757 12.7998 92.4447 12.9786 92.2459L12.9788 92.2458Z" fill="url(#paint2_linear_125_282)"/>
<path opacity="0.3" fill-rule="evenodd" clip-rule="evenodd" d="M222.836 58.0143L196.918 43V73.404L222.836 88.4183V58.0143Z" fill="#3364ED"/>
<path opacity="0.701597" fill-rule="evenodd" clip-rule="evenodd" d="M196.918 103.433L171 88.4183L197.294 73.0286L223.211 88.0429L196.918 103.433Z" fill="#3364ED"/>
<path opacity="0.5" fill-rule="evenodd" clip-rule="evenodd" d="M171.001 58.0143L196.918 43V73.404L171.001 88.4183V58.0143Z" fill="#3364ED"/>
<path fill-rule="evenodd" clip-rule="evenodd" d="M176.635 61.2402L197.106 73.0993V97.114L176.635 85.2549V61.2402Z" fill="url(#paint3_linear_125_282)"/>
<path fill-rule="evenodd" clip-rule="evenodd" d="M197.106 49.3811L217.577 61.2402L197.106 73.0993L176.635 61.2402L197.106 49.3811Z" fill="url(#paint4_linear_125_282)"/>
<path fill-rule="evenodd" clip-rule="evenodd" d="M217.578 61.2402L197.106 73.0993V97.114L217.578 85.2549V61.2402Z" fill="url(#paint5_linear_125_282)"/>
<path fill-rule="evenodd" clip-rule="evenodd" d="M171 58.0143L196.918 73.0286V103.433L171 88.4183V58.0143Z" stroke="url(#paint6_linear_125_282)" stroke-width="1.08023" stroke-linejoin="round"/>
<path fill-rule="evenodd" clip-rule="evenodd" d="M222.836 58.0143L196.918 73.0286V103.433L222.836 88.4183V58.0143Z" stroke="url(#paint7_linear_125_282)" stroke-width="1.08023" stroke-linejoin="round"/>
<path fill-rule="evenodd" clip-rule="evenodd" d="M196.918 43L222.836 58.0143L196.918 73.0286L171 58.0143L196.918 43Z" stroke="url(#paint8_linear_125_282)" stroke-width="1.08023" stroke-linejoin="round"/>
<path fill-rule="evenodd" clip-rule="evenodd" d="M194.289 61.3925C194.704 61.3925 195.04 61.0564 195.04 60.6418C195.04 60.2272 194.704 59.8911 194.289 59.8911C193.874 59.8911 193.538 60.2272 193.538 60.6418C193.538 61.0564 193.874 61.3925 194.289 61.3925Z" fill="#A2FF74"/>
<path fill-rule="evenodd" clip-rule="evenodd" d="M205.558 62.1432C205.973 62.1432 206.309 61.8071 206.309 61.3925C206.309 60.9779 205.973 60.6418 205.558 60.6418C205.143 60.6418 204.807 60.9779 204.807 61.3925C204.807 61.8071 205.143 62.1432 205.558 62.1432Z" fill="#A2FF74"/>
<path fill-rule="evenodd" clip-rule="evenodd" d="M200.299 57.6389C200.714 57.6389 201.05 57.3028 201.05 56.8882C201.05 56.4736 200.714 56.1375 200.299 56.1375C199.884 56.1375 199.548 56.4736 199.548 56.8882C199.548 57.3028 199.884 57.6389 200.299 57.6389Z" fill="#A2FF74"/>
<path fill-rule="evenodd" clip-rule="evenodd" d="M198.796 65.5214C199.211 65.5214 199.547 65.1853 199.547 64.7707C199.547 64.3561 199.211 64.02 198.796 64.02C198.381 64.02 198.045 64.3561 198.045 64.7707C198.045 65.1853 198.381 65.5214 198.796 65.5214Z" fill="#A2FF74"/>
<path fill-rule="evenodd" clip-rule="evenodd" d="M187.528 62.1432C187.943 62.1432 188.279 61.8071 188.279 61.3925C188.279 60.9779 187.943 60.6418 187.528 60.6418C187.113 60.6418 186.776 60.9779 186.776 61.3925C186.776 61.8071 187.113 62.1432 187.528 62.1432Z" fill="#A2FF74"/>
<path fill-rule="evenodd" clip-rule="evenodd" d="M197 37L166 55V91L197 109L228 91V55L197 37Z" stroke="url(#paint9_linear_125_282)" stroke-width="1.61616"/>
<path d="M163 91L28 91" stroke="url(#paint10_linear_125_282)" stroke-width="1.35747" stroke-dasharray="1.36"/>
<defs>
<linearGradient id="paint0_linear_125_282" x1="197.15" y1="95.9999" x2="197.15" y2="-37.5" gradientUnits="userSpaceOnUse">
<stop stop-color="#FF5245"/>
<stop offset="1" stop-color="#3094FF"/>
</linearGradient>
<linearGradient id="paint1_linear_125_282" x1="2.41846" y1="99" x2="32.4185" y2="79" gradientUnits="userSpaceOnUse">
<stop stop-color="#FF5245"/>
<stop offset="0.85344" stop-color="#79DAFF"/>
</linearGradient>
<linearGradient id="paint2_linear_125_282" x1="17.1186" y1="84.1748" x2="9.53604" y2="85.2332" gradientUnits="userSpaceOnUse">
<stop stop-color="#61DAA1"/>
<stop offset="1" stop-color="#1BC1C7"/>
</linearGradient>
<linearGradient id="paint3_linear_125_282" x1="183.95" y1="60.0063" x2="173.502" y2="70.1034" gradientUnits="userSpaceOnUse">
<stop stop-color="#FF7E7E"/>
<stop offset="1" stop-color="#77D1FF"/>
</linearGradient>
<linearGradient id="paint4_linear_125_282" x1="217.577" y1="49.3811" x2="176.635" y2="49.3811" gradientUnits="userSpaceOnUse">
<stop stop-color="#8AE3FF"/>
<stop offset="1" stop-color="#52C4FF"/>
</linearGradient>
<linearGradient id="paint5_linear_125_282" x1="207.949" y1="63.1846" x2="218.861" y2="71.5586" gradientUnits="userSpaceOnUse">
<stop stop-color="#FFA6B1"/>
<stop offset="1" stop-color="#31ACEC"/>
</linearGradient>
<linearGradient id="paint6_linear_125_282" x1="191.616" y1="90.6616" x2="191.616" y2="63.825" gradientUnits="userSpaceOnUse">
<stop stop-color="white"/>
<stop offset="1" stop-color="#5AC8FF"/>
</linearGradient>
<linearGradient id="paint7_linear_125_282" x1="200.744" y1="95.6307" x2="200.744" y2="63.6224" gradientUnits="userSpaceOnUse">
<stop stop-color="white"/>
<stop offset="1" stop-color="#5AC8FF"/>
</linearGradient>
<linearGradient id="paint8_linear_125_282" x1="222.836" y1="73.0286" x2="222.836" y2="43" gradientUnits="userSpaceOnUse">
<stop stop-color="white"/>
<stop offset="1" stop-color="#5AC8FF"/>
</linearGradient>
<linearGradient id="paint9_linear_125_282" x1="228" y1="37" x2="166" y2="37" gradientUnits="userSpaceOnUse">
<stop stop-color="#0069FF"/>
<stop offset="1" stop-color="#00E6DE"/>
</linearGradient>
<linearGradient id="paint10_linear_125_282" x1="28" y1="91" x2="161.5" y2="91" gradientUnits="userSpaceOnUse">
<stop stop-color="#FF5245"/>
<stop offset="1" stop-color="#3094FF"/>
</linearGradient>
</defs>
</svg>
