<svg width="624" height="539" viewBox="0 0 624 539" fill="none" xmlns="http://www.w3.org/2000/svg">
<path opacity="0.18" d="M241.749 66.668L208.967 97.2802C197.009 108.46 184.983 119.678 171.81 129.044C138.959 152.386 99.8938 163.49 67.9557 188.38C35.7839 213.677 12.9888 251.247 3.85977 294.022C-13.6209 377.455 29.6163 494.201 106.396 521.886C134.906 532.197 165.611 529.779 195.573 529.723C270.529 529.572 345.553 544.831 420.204 536.521C494.856 528.212 573.055 489.706 605.077 413.921C634.279 344.822 625.801 247.018 605.77 176.238C592.258 128.232 568.022 83.06 532.706 51.8057C483.321 8.14405 416.658 -4.62206 353.964 1.40219C336.905 3.02628 319.661 6.02895 304.156 14.1494C290.189 21.4767 278.163 32.6565 266.324 43.723L241.749 66.668Z" fill="#D79D00"/>
<g filter="url(#filter0_d_49_1239)">
<path d="M279.17 277.569C284.031 282.194 291.947 282.194 296.877 277.569L372.498 206.197C394.441 185.448 393.192 151.075 368.61 131.951C347.222 115.264 315.349 118.264 295.766 136.763L287.989 144.075L280.281 136.825C260.699 118.264 228.826 115.264 207.438 131.951C182.925 151.075 181.606 185.448 203.549 206.197L279.17 277.569ZM480.548 326.067C472.354 319.38 459.577 319.818 450.966 326.067L386.803 372.253C378.956 377.94 369.165 381.003 359.027 381.003H276.878C270.768 381.003 265.768 376.503 265.768 371.003C265.768 365.503 270.768 361.003 276.878 361.003H331.25C342.292 361.003 352.569 354.191 354.374 344.379C356.666 331.88 345.972 321.005 332.431 321.005H221.326C202.577 321.005 184.453 326.817 169.87 337.442L137.581 361.003H99.1105C92.9997 361.003 88 365.503 88 371.003V431C88 436.5 92.9997 441 99.1105 441H346.875C356.944 441 366.735 437.938 374.651 432.25L479.645 356.629C490.2 349.066 491.033 334.567 480.548 326.067Z" fill="url(#paint0_linear_49_1239)"/>
<path d="M479.188 327.745L479.182 327.741C471.854 321.76 460.169 322.057 452.235 327.815L452.228 327.82L388.071 374.002C388.07 374.002 388.07 374.002 388.07 374.003C379.833 379.972 369.592 383.163 359.027 383.163H276.878C269.794 383.163 263.608 377.904 263.608 371.003C263.608 364.102 269.794 358.843 276.878 358.843H331.25C341.573 358.843 350.685 352.487 352.25 343.99C354.245 333.103 344.931 323.165 332.431 323.165H221.326C203.018 323.165 185.343 328.842 171.142 339.188L138.854 362.748L138.285 363.163H137.581H99.1107C93.9732 363.163 90.1602 366.905 90.1602 371.003V431C90.1602 435.099 93.9732 438.84 99.1107 438.84H346.875C356.511 438.84 365.857 435.908 373.388 430.498L479.188 327.745ZM479.188 327.745C488.533 335.321 487.817 348.117 478.387 354.873L478.383 354.876L373.391 430.496L479.188 327.745ZM280.659 276.005L280.653 275.999L205.033 204.628C184.052 184.789 185.295 151.966 208.767 133.653L207.438 131.95L208.767 133.653C229.232 117.686 259.913 120.495 278.795 138.393L278.801 138.399L286.509 145.648L287.989 147.04L289.469 145.649L297.246 138.336L297.25 138.333C316.133 120.494 346.815 117.686 367.281 133.653L367.283 133.655C390.818 151.965 391.999 184.785 371.014 204.628L295.4 275.994C295.399 275.995 295.398 275.996 295.397 275.997C291.291 279.845 284.679 279.829 280.659 276.005Z" stroke="white" stroke-width="4.32"/>
<path d="M450.5 217C470.106 217 486 201.106 486 181.5C486 161.894 470.106 146 450.5 146C430.894 146 415 161.894 415 181.5C415 201.106 430.894 217 450.5 217Z" fill="url(#paint1_linear_49_1239)"/>
<path d="M449.633 175.557C449.633 175.557 436.523 159.729 428.276 174.696C420.028 189.664 454.477 203 454.477 203C454.477 203 473.854 185.236 471.855 174.517C469.856 163.798 452.082 159.603 449.633 175.557Z" fill="white"/>
</g>
<defs>
<filter id="filter0_d_49_1239" x="70.72" y="121" width="434.56" height="354.56" filterUnits="userSpaceOnUse" color-interpolation-filters="sRGB">
<feFlood flood-opacity="0" result="BackgroundImageFix"/>
<feColorMatrix in="SourceAlpha" type="matrix" values="0 0 0 0 0 0 0 0 0 0 0 0 0 0 0 0 0 0 127 0" result="hardAlpha"/>
<feOffset dy="17.28"/>
<feGaussianBlur stdDeviation="8.64"/>
<feColorMatrix type="matrix" values="0 0 0 0 0 0 0 0 0 0 0 0 0 0 0 0 0 0 0.25 0"/>
<feBlend mode="normal" in2="BackgroundImageFix" result="effect1_dropShadow_49_1239"/>
<feBlend mode="normal" in="SourceGraphic" in2="effect1_dropShadow_49_1239" result="shape"/>
</filter>
<linearGradient id="paint0_linear_49_1239" x1="88" y1="281" x2="488" y2="281" gradientUnits="userSpaceOnUse">
<stop stop-color="#EF0D0F"/>
<stop offset="1" stop-color="#FE9800"/>
</linearGradient>
<linearGradient id="paint1_linear_49_1239" x1="409.373" y1="192.498" x2="485.611" y2="161.5" gradientUnits="userSpaceOnUse">
<stop stop-color="#EF0D0F"/>
<stop offset="1" stop-color="#D79D00"/>
</linearGradient>
</defs>
</svg>
