<svg width="64" height="64" viewBox="0 0 64 64" fill="none" xmlns="http://www.w3.org/2000/svg">
<path fill-rule="evenodd" clip-rule="evenodd" d="M29.6752 54.3393L15.0085 43.8631C14.1874 43.2766 13.7768 42.9833 13.5552 42.5526C13.3335 42.1218 13.3335 41.6173 13.3335 40.6082V23.3918C13.3335 23.0704 13.3335 22.8003 13.3407 22.5673L31.0002 35.1813V55.2313C30.6434 55.0309 30.2271 54.7336 29.6752 54.3393ZM33.0002 55.2313C33.3569 55.0309 33.7732 54.7336 34.3251 54.3393L48.9918 43.8631C49.8129 43.2766 50.2235 42.9833 50.4452 42.5526C50.6668 42.1218 50.6668 41.6173 50.6668 40.6082V23.3918C50.6668 23.0704 50.6668 22.8003 50.6597 22.5673L33.0002 35.1813V55.2313ZM49.7944 20.7276L32.0002 33.4377L14.2059 20.7276C14.4172 20.5592 14.68 20.3715 15.0085 20.1369L29.6752 9.66067C30.7979 8.85875 31.3592 8.45779 32.0002 8.45779C32.6411 8.45779 33.2024 8.85875 34.3251 9.66067L48.9918 20.1369C49.3203 20.3715 49.5831 20.5592 49.7944 20.7276Z" fill="#3364ED"/>
</svg>
