<svg width="39" height="39" viewBox="0 0 39 39" fill="none" xmlns="http://www.w3.org/2000/svg">
<path d="M3.67962 5.76482L7.73734 1.70711C8.12786 1.31658 8.76103 1.31658 9.15155 1.70711L16.1818 8.73734C16.5723 9.12786 16.5723 9.76103 16.1818 10.1516L13.1763 13.157C12.872 13.4614 12.7965 13.9263 12.989 14.3113L13.4603 15.2538C15.6858 19.705 19.295 23.3142 23.7462 25.5398L24.6887 26.011C25.0737 26.2035 25.5386 26.128 25.843 25.8237L28.8484 22.8182C29.239 22.4277 29.8721 22.4277 30.2627 22.8182L37.2929 29.8484C37.6834 30.239 37.6834 30.8721 37.2929 31.2627L33.2352 35.3204C31.1238 37.4317 27.7813 37.6693 25.3925 35.8777L15.2952 28.3048C13.5517 26.9971 12.0029 25.4483 10.6952 23.7048L3.12226 13.6075C1.33072 11.2187 1.56827 7.87618 3.67962 5.76482Z" stroke="#F8FCFF" stroke-width="2"/>
</svg>
