<svg width="25" height="25" viewBox="0 0 25 25" fill="none" xmlns="http://www.w3.org/2000/svg">
<path d="M3.67963 2.65371L4.62623 1.70711C5.01675 1.31658 5.64992 1.31658 6.04044 1.70711L9.95956 5.62623C10.3501 6.01675 10.3501 6.64992 9.95956 7.04044L8.36233 8.63767C8.14595 8.85405 8.09231 9.18461 8.22916 9.45831C9.81137 12.6227 12.3773 15.1886 15.5417 16.7708C15.8154 16.9077 16.146 16.8541 16.3623 16.6377L17.9596 15.0404C18.3501 14.6499 18.9832 14.6499 19.3738 15.0404L23.2929 18.9596C23.6834 19.3501 23.6834 19.9832 23.2929 20.3738L22.3463 21.3204C20.2349 23.4317 16.8924 23.6693 14.5037 21.8777L10.6286 18.9714C8.88504 17.6638 7.33622 16.115 6.02857 14.3714L3.12226 10.4964C1.33072 8.10763 1.56827 4.76506 3.67963 2.65371Z" stroke="#F8FCFF" stroke-width="2"/>
</svg>
