<svg width="119" height="58" viewBox="0 0 119 58" fill="none" xmlns="http://www.w3.org/2000/svg">
<path d="M13.6514 44.7872C28.7443 15.0833 54.3734 4.06232 90.5384 11.7241" stroke="url(#paint0_linear_122_248)" stroke-width="1.35747"/>
<path d="M13.8959 57.184C21.0182 57.184 26.7919 51.4103 26.7919 44.2881C26.7919 37.1659 21.0182 31.3922 13.8959 31.3922C6.7737 31.3922 1 37.1659 1 44.2881C1 51.4103 6.7737 57.184 13.8959 57.184Z" fill="#00E6DE" fill-opacity="0.197492" stroke="#00E6DE" stroke-width="1.35747"/>
<path d="M13.8959 49.7179C16.8948 49.7179 19.3258 47.2869 19.3258 44.288C19.3258 41.2892 16.8948 38.8582 13.8959 38.8582C10.8971 38.8582 8.46606 41.2892 8.46606 44.288C8.46606 47.2869 10.8971 49.7179 13.8959 49.7179Z" fill="#00E6DE"/>
<path d="M105.43 19.8597C108.429 19.8597 110.86 17.4287 110.86 14.4299C110.86 11.431 108.429 9 105.43 9C102.431 9 100 11.431 100 14.4299C100 17.4287 102.431 19.8597 105.43 19.8597Z" fill="#00E6DE"/>
<path opacity="0.302734" d="M104.575 27.5554C112.072 27.5554 118.149 21.4779 118.149 13.9808C118.149 6.48371 112.072 0.406128 104.575 0.406128C97.0776 0.406128 91 6.48371 91 13.9808C91 21.4779 97.0776 27.5554 104.575 27.5554Z" fill="url(#paint1_linear_122_248)"/>
<defs>
<linearGradient id="paint0_linear_122_248" x1="64.7041" y1="-1.38148" x2="49.3753" y2="35.4598" gradientUnits="userSpaceOnUse">
<stop stop-color="#0069FF"/>
<stop offset="1" stop-color="#00E6DE"/>
</linearGradient>
<linearGradient id="paint1_linear_122_248" x1="91.5879" y1="27.2615" x2="118.149" y2="27.2615" gradientUnits="userSpaceOnUse">
<stop stop-color="#00E6DE"/>
<stop offset="1" stop-color="white" stop-opacity="0.01"/>
</linearGradient>
</defs>
</svg>
