<svg width="169" height="86" viewBox="0 0 169 86" fill="none" xmlns="http://www.w3.org/2000/svg">
<path d="M14 72.8047C38.9302 14.9394 81.2635 -6.5303 141 8.39548" stroke="url(#paint0_linear_122_248)" stroke-width="1.35747"/>
<path d="M13.8959 84.9887C21.0182 84.9887 26.7919 79.215 26.7919 72.0928C26.7919 64.9705 21.0182 59.1968 13.8959 59.1968C6.7737 59.1968 1 64.9705 1 72.0928C1 79.215 6.7737 84.9887 13.8959 84.9887Z" fill="#00E6DE" fill-opacity="0.197492" stroke="#00E6DE" stroke-width="1.35747"/>
<path d="M13.8959 77.5226C16.8948 77.5226 19.3258 75.0915 19.3258 72.0927C19.3258 69.0939 16.8948 66.6628 13.8959 66.6628C10.8971 66.6628 8.46606 69.0939 8.46606 72.0927C8.46606 75.0915 10.8971 77.5226 13.8959 77.5226Z" fill="#00E6DE"/>
<path d="M155.43 20.0553C158.429 20.0553 160.86 17.6243 160.86 14.6254C160.86 11.6266 158.429 9.19556 155.43 9.19556C152.431 9.19556 150 11.6266 150 14.6254C150 17.6243 152.431 20.0553 155.43 20.0553Z" fill="#00E6DE"/>
<path opacity="0.302734" d="M154.575 27.751C162.072 27.751 168.149 21.6734 168.149 14.1763C168.149 6.67927 162.072 0.601685 154.575 0.601685C147.078 0.601685 141 6.67927 141 14.1763C141 21.6734 147.078 27.751 154.575 27.751Z" fill="url(#paint1_linear_122_248)"/>
<defs>
<linearGradient id="paint0_linear_122_248" x1="98.3275" y1="-17.1352" x2="65.0303" y2="50.7196" gradientUnits="userSpaceOnUse">
<stop stop-color="#0069FF"/>
<stop offset="1" stop-color="#00E6DE"/>
</linearGradient>
<linearGradient id="paint1_linear_122_248" x1="141.588" y1="27.4571" x2="168.149" y2="27.4571" gradientUnits="userSpaceOnUse">
<stop stop-color="#00E6DE"/>
<stop offset="1" stop-color="white" stop-opacity="0.01"/>
</linearGradient>
</defs>
</svg>
