<svg width="493" height="381" viewBox="0 0 493 381" fill="none" xmlns="http://www.w3.org/2000/svg">
<path opacity="0.18" d="M190.997 47.1252L165.097 68.764C155.65 76.6665 146.149 84.5959 135.741 91.2169C109.787 107.716 78.9225 115.565 53.6893 133.159C28.2715 151.04 10.262 177.597 3.04946 207.834C-10.7614 266.81 23.3988 349.333 84.0599 368.903C106.584 376.191 130.843 374.482 154.515 374.442C213.735 374.336 273.009 385.122 331.988 379.248C390.968 373.374 452.75 346.156 478.05 292.586C501.122 243.742 494.423 174.608 478.597 124.576C467.922 90.6429 448.774 58.7122 420.872 36.6196C381.854 5.75674 329.186 -3.26717 279.654 0.991156C266.177 2.13917 252.553 4.26165 240.303 10.0017C229.268 15.1811 219.767 23.0837 210.413 30.9062L190.997 47.1252Z" fill="#D79D00"/>
<path d="M403.33 190.738C403.33 215.983 391.932 236.456 377.871 236.456H374.239C360.754 235.285 352.402 215.238 352.402 190.738C352.402 165.983 360.327 145.797 374.015 145.02H377.871C391.975 145.03 403.33 165.493 403.33 190.738Z" fill="#EF0D0F"/>
<path opacity="0.1" d="M403.33 190.738C403.33 215.983 391.932 236.456 377.871 236.456H374.239C360.754 235.285 352.402 215.238 352.402 190.738C352.402 165.983 360.327 145.797 374.015 145.02H377.871C391.975 145.03 403.33 165.493 403.33 190.738Z" fill="#020202"/>
<path d="M374.058 236.456C388.124 236.456 399.527 215.988 399.527 190.738C399.527 165.488 388.124 145.02 374.058 145.02C359.992 145.02 348.589 165.488 348.589 190.738C348.589 215.988 359.992 236.456 374.058 236.456Z" fill="url(#paint0_linear_51_614)"/>
<path d="M374.058 229.671C386.035 229.671 395.745 212.24 395.745 190.738C395.745 169.236 386.035 151.805 374.058 151.805C362.08 151.805 352.37 169.236 352.37 190.738C352.37 212.24 362.08 229.671 374.058 229.671Z" fill="white"/>
<path d="M374.058 223.141C384.024 223.141 392.103 208.634 392.103 190.738C392.103 172.842 384.024 158.335 374.058 158.335C364.092 158.335 356.014 172.842 356.014 190.738C356.014 208.634 364.092 223.141 374.058 223.141Z" fill="url(#paint1_linear_51_614)"/>
<path d="M374.058 214.716C381.435 214.716 387.415 203.981 387.415 190.738C387.415 177.496 381.435 166.76 374.058 166.76C366.681 166.76 360.7 177.496 360.7 190.738C360.7 203.981 366.681 214.716 374.058 214.716Z" fill="white"/>
<path d="M374.058 207.483C379.211 207.483 383.389 199.986 383.389 190.738C383.389 181.49 379.211 173.993 374.058 173.993C368.904 173.993 364.727 181.49 364.727 190.738C364.727 199.986 368.904 207.483 374.058 207.483Z" fill="url(#paint2_linear_51_614)"/>
<path d="M374.058 199.451C376.74 199.451 378.915 195.55 378.915 190.738C378.915 185.926 376.74 182.025 374.058 182.025C371.375 182.025 369.2 185.926 369.2 190.738C369.2 195.55 371.375 199.451 374.058 199.451Z" fill="white"/>
<path d="M284.229 189.897L276.922 182.355L274.823 178.904H269.764L267.676 176.177H260.859L263.106 179.628H255L265.269 190.301L256.992 199.217H265.354L263.01 202.019H269.359L272.075 198.248H276.666L284.229 189.897Z" fill="url(#paint3_linear_51_614)"/>
<path opacity="0.1" d="M265.269 190.301H284.229L276.922 182.355L274.823 178.904H269.764L274.759 188.373H269.21L263.106 179.628H255L265.269 190.301Z" fill="#020202"/>
<path d="M370.308 189.822C370.31 190.011 370.273 190.199 370.202 190.374C370.13 190.549 370.024 190.708 369.89 190.842C369.756 190.976 369.597 191.082 369.422 191.153C369.247 191.225 369.059 191.261 368.87 191.26H272.544C272.353 191.279 272.16 191.26 271.977 191.203C271.793 191.147 271.623 191.055 271.475 190.932C271.328 190.809 271.206 190.658 271.117 190.488C271.029 190.318 270.975 190.132 270.958 189.941C270.942 189.75 270.964 189.557 271.023 189.374C271.082 189.192 271.176 189.022 271.301 188.877C271.426 188.731 271.578 188.611 271.75 188.525C271.921 188.438 272.108 188.387 272.299 188.373H368.86C369.05 188.373 369.238 188.411 369.414 188.484C369.59 188.556 369.749 188.663 369.884 188.798C370.018 188.932 370.125 189.092 370.198 189.268C370.271 189.443 370.308 189.632 370.308 189.822Z" fill="#EF0D0F"/>
<path opacity="0.1" d="M367.837 189.822V191.26H272.544C272.355 191.263 272.167 191.228 271.992 191.158C271.816 191.087 271.656 190.982 271.521 190.85C271.386 190.717 271.279 190.558 271.206 190.384C271.133 190.209 271.096 190.022 271.096 189.833H367.837V189.822Z" fill="#020202"/>
<path opacity="0.1" d="M263.011 202.019L271.863 191.26H277.157L269.359 202.019H263.011Z" fill="#020202"/>
<path d="M362.202 184.357L363.8 189.822L362.202 194.53L374.622 190.195L362.202 184.357Z" fill="#EF0D0F"/>
<path d="M362.202 184.357L363.8 189.822L362.202 194.53L374.622 190.195L362.202 184.357Z" fill="url(#paint4_linear_51_614)"/>
<path d="M299.164 177.306C310.018 177.306 318.817 168.507 318.817 157.653C318.817 146.799 310.018 138 299.164 138C288.31 138 279.511 146.799 279.511 157.653C279.511 168.507 288.31 177.306 299.164 177.306Z" fill="url(#paint5_linear_51_614)"/>
<path d="M290.982 163.139C291.08 163.336 291.218 163.51 291.387 163.65C291.645 163.84 291.933 163.984 292.239 164.076C295.893 165.344 299.696 166.43 303.562 166.079C303.973 166.066 304.377 165.964 304.745 165.78C304.927 165.689 305.079 165.547 305.183 165.371C305.287 165.195 305.338 164.994 305.331 164.79C305.295 164.617 305.271 164.443 305.256 164.268C305.256 163.607 306.321 163.501 306.577 162.904C306.641 162.707 306.646 162.494 306.592 162.294C306.537 162.093 306.424 161.913 306.268 161.775C305.98 161.477 305.618 161.264 305.341 160.955C305.813 160.7 306.215 160.335 306.513 159.89C306.653 159.658 306.718 159.389 306.701 159.119C306.684 158.848 306.585 158.59 306.417 158.377C306.13 158.068 305.618 157.898 305.576 157.482C305.533 157.067 305.949 156.833 306.183 156.534C306.425 156.164 306.517 155.716 306.44 155.28C306.363 154.845 306.122 154.455 305.767 154.191C305.035 153.678 304.142 153.448 303.254 153.541C302.373 153.639 301.487 153.678 300.601 153.658C300.492 153.665 300.383 153.647 300.282 153.606C300.181 153.566 300.09 153.504 300.015 153.424C299.845 153.19 299.951 152.849 300.015 152.572C300.398 151.664 300.562 150.679 300.494 149.697C300.425 148.714 300.126 147.761 299.621 146.916C299.44 146.588 299.167 146.321 298.836 146.147C298.505 145.973 298.13 145.899 297.757 145.936C297.516 146.006 297.295 146.131 297.11 146.301C296.925 146.471 296.782 146.681 296.692 146.916C296.526 147.381 296.411 147.863 296.351 148.354C295.84 151.272 294.455 154.393 291.504 155.48C291.004 155.661 290.556 155.565 290.226 156.023C289.988 156.452 289.877 156.94 289.907 157.429C289.77 159.296 290.065 161.17 290.769 162.904L290.982 163.139Z" fill="white"/>
<path d="M344.615 254.693C352.834 254.693 359.496 248.03 359.496 239.812C359.496 231.593 352.834 224.931 344.615 224.931C336.397 224.931 329.734 231.593 329.734 239.812C329.734 248.03 336.397 254.693 344.615 254.693Z" fill="url(#paint6_linear_51_614)"/>
<path d="M338.353 243.881C338.424 244.031 338.525 244.166 338.651 244.275C338.843 244.422 339.059 244.534 339.29 244.605C341.981 245.755 344.886 246.321 347.812 246.267C348.122 246.266 348.429 246.193 348.706 246.054C348.847 245.987 348.966 245.881 349.049 245.749C349.132 245.617 349.176 245.464 349.175 245.308C349.175 245.17 349.111 245.042 349.111 244.914C349.111 244.413 349.931 244.349 350.176 243.849C350.227 243.701 350.232 243.541 350.193 243.389C350.153 243.238 350.069 243.101 349.953 242.997C349.74 242.773 349.473 242.603 349.26 242.368C349.623 242.175 349.934 241.898 350.166 241.559C350.268 241.382 350.317 241.18 350.308 240.976C350.299 240.772 350.231 240.575 350.112 240.408C349.899 240.174 349.516 240.035 349.495 239.727C349.473 239.418 349.772 239.237 349.963 239.013C350.147 238.734 350.219 238.397 350.166 238.067C350.113 237.738 349.938 237.44 349.676 237.234C349.127 236.837 348.454 236.652 347.78 236.712C347.113 236.755 346.444 236.755 345.777 236.712C345.694 236.715 345.611 236.701 345.534 236.67C345.457 236.638 345.387 236.591 345.33 236.531C345.202 236.35 345.33 236.094 345.33 235.881C345.624 235.201 345.756 234.463 345.715 233.723C345.675 232.984 345.462 232.264 345.095 231.62C344.962 231.371 344.759 231.166 344.512 231.03C344.264 230.894 343.982 230.832 343.7 230.853C343.521 230.908 343.357 231.002 343.221 231.13C343.084 231.257 342.978 231.414 342.912 231.588C342.777 231.931 342.684 232.289 342.635 232.654C342.209 234.859 341.122 237.202 338.875 237.98C338.491 238.107 338.161 238.033 337.905 238.374C337.72 238.697 337.631 239.067 337.65 239.439C337.509 240.85 337.706 242.274 338.225 243.593C338.257 243.694 338.299 243.79 338.353 243.881Z" fill="white"/>
<path d="M284.805 237.394C292.123 237.394 298.056 231.461 298.056 224.143C298.056 216.824 292.123 210.892 284.805 210.892C277.486 210.892 271.554 216.824 271.554 224.143C271.554 231.461 277.486 237.394 284.805 237.394Z" fill="url(#paint7_linear_51_614)"/>
<path d="M284.4 221.97C284.4 221.97 279.564 216.1 276.507 221.661C273.449 227.221 286.2 232.174 286.2 232.174C286.2 232.174 293.369 225.57 292.591 221.586C291.814 217.602 285.294 216.047 284.4 221.97Z" fill="white"/>
<path d="M323.045 217.123C334.746 217.123 344.232 207.637 344.232 195.936C344.232 184.235 334.746 174.749 323.045 174.749C311.344 174.749 301.858 184.235 301.858 195.936C301.858 207.637 311.344 217.123 323.045 217.123Z" fill="url(#paint8_linear_51_614)"/>
<path d="M322.374 192.474C322.374 192.474 314.619 183.069 309.741 191.963C304.862 200.857 325.239 208.782 325.239 208.782C325.239 208.782 336.701 198.226 335.519 191.856C334.336 185.487 323.823 182.994 322.374 192.474Z" fill="white"/>
<path d="M162.047 195.961L150.86 202.09L135 241.261L168.577 222.875L162.047 195.961Z" fill="#EF0D0F"/>
<path d="M210.281 195.961L221.468 202.09L237.328 241.261L203.751 222.875L210.281 195.961Z" fill="#EF0D0F"/>
<path d="M162.047 205.961L150.86 212.09L135 251.261L168.577 232.875L162.047 205.961Z" fill="url(#paint9_linear_51_614)"/>
<path d="M210.281 205.961L221.468 212.09L237.328 251.261L203.751 232.875L210.281 205.961Z" fill="url(#paint10_linear_51_614)"/>
<path opacity="0.24" d="M185.576 319.211C196.274 319.211 204.947 318.156 204.947 316.854C204.947 315.553 196.274 314.497 185.576 314.497C174.878 314.497 166.205 315.553 166.205 316.854C166.205 318.156 174.878 319.211 185.576 319.211Z" fill="#D79D00"/>
<path opacity="0.24" d="M184.401 334.586C201.752 334.586 215.818 332.875 215.818 330.765C215.818 328.655 201.752 326.944 184.401 326.944C167.05 326.944 152.984 328.655 152.984 330.765C152.984 332.875 167.05 334.586 184.401 334.586Z" fill="#D79D00"/>
<path d="M184.985 307.531C212.164 307.531 234.197 304.85 234.197 301.543C234.197 298.236 212.164 295.556 184.985 295.556C157.806 295.556 135.773 298.236 135.773 301.543C135.773 304.85 157.806 307.531 184.985 307.531Z" stroke="#D79D00" stroke-width="4.36952" stroke-miterlimit="10"/>
<path d="M184.985 307.531C212.164 307.531 234.197 304.85 234.197 301.543C234.197 298.236 212.164 295.556 184.985 295.556C157.806 295.556 135.773 298.236 135.773 301.543C135.773 304.85 157.806 307.531 184.985 307.531Z" stroke="#D79D00" stroke-width="4.36952" stroke-miterlimit="10"/>
<path d="M186.083 116.511C186.083 116.511 133.205 147.562 164.271 244.402H207.375C207.375 244.402 239.376 167.341 186.083 116.511Z" fill="#EF0D0F"/>
<path d="M186.083 116.511C186.083 116.511 133.205 147.562 164.271 244.402H207.375C207.375 244.402 239.376 167.341 186.083 116.511Z" fill="url(#paint11_linear_51_614)"/>
<path d="M185.183 193.987C193.176 193.987 199.656 187.507 199.656 179.514C199.656 171.52 193.176 165.04 185.183 165.04C177.189 165.04 170.709 171.52 170.709 179.514C170.709 187.507 177.189 193.987 185.183 193.987Z" fill="white"/>
<path d="M167.887 278.422L173.207 268.733C174.148 280.627 177.068 292.28 181.847 303.211C190.439 294.662 192.592 281.757 194.252 269.754C196.692 275.645 198.87 281.633 200.789 287.717C204.688 279.983 205.96 271.19 204.413 262.668L207.72 268.297C209.98 260.132 209.005 251.409 204.997 243.945C198.167 244.451 191.323 244.787 184.465 244.951C181.181 245.035 177.884 245.077 174.572 245.077C172.398 245.077 168.394 244.226 166.41 245.331C162.596 247.442 163.989 256.54 164.229 260.276C164.426 263.365 164.833 266.438 165.446 269.472C165.734 270.9 168.429 277.437 167.887 278.422Z" fill="#EF0D0F"/>
<path d="M167.887 278.422L173.207 268.733C174.148 280.627 177.068 292.28 181.847 303.211C190.439 294.662 192.592 281.757 194.252 269.754C196.692 275.645 198.87 281.633 200.789 287.717C204.688 279.983 205.96 271.19 204.413 262.668L207.72 268.297C209.98 260.132 209.005 251.409 204.997 243.945C198.167 244.451 191.323 244.787 184.465 244.951C181.181 245.035 177.884 245.077 174.572 245.077C172.398 245.077 168.394 244.226 166.41 245.331C162.596 247.442 163.989 256.54 164.229 260.276C164.426 263.365 164.833 266.438 165.446 269.472C165.734 270.9 168.429 277.437 167.887 278.422Z" fill="url(#paint12_linear_51_614)"/>
<path d="M175.205 266.257L178.442 260.346C179.02 267.599 180.803 274.704 183.719 281.37C188.954 276.157 190.27 268.283 191.283 260.965C192.774 264.563 194.104 268.217 195.272 271.928C197.65 267.209 198.425 261.844 197.482 256.645L199.494 260.093C200.884 255.102 200.289 249.766 197.833 245.204C193.668 245.514 189.496 245.72 185.316 245.823C183.304 245.87 181.291 245.894 179.279 245.894C177.956 245.894 175.514 245.373 174.304 246.048C171.975 247.35 172.82 252.888 172.967 255.196C173.091 257.086 173.341 258.967 173.713 260.825C173.889 261.669 175.529 265.659 175.205 266.257Z" fill="url(#paint13_linear_51_614)"/>
<path d="M175.275 126.397C175.275 126.397 186.238 130.091 195.153 126.397L186.301 116.771C186.09 116.542 185.832 116.36 185.545 116.239C185.257 116.118 184.947 116.06 184.636 116.07C184.324 116.079 184.018 116.155 183.738 116.293C183.459 116.431 183.212 116.628 183.015 116.87L175.275 126.397Z" fill="#EF0D0F"/>
<path d="M175.275 126.397C175.275 126.397 186.238 130.091 195.153 126.397L186.196 116.659C185.998 116.443 185.756 116.273 185.486 116.16C185.217 116.046 184.926 115.992 184.634 116.001C184.342 116.01 184.055 116.081 183.792 116.21C183.53 116.339 183.299 116.524 183.114 116.75L175.275 126.397Z" fill="url(#paint14_linear_51_614)"/>
<path d="M203.934 279.682C211.308 280.385 216.008 281.532 216.008 282.785C216.008 285.008 201.232 286.809 182.938 286.809C164.643 286.809 149.867 285.008 149.867 282.785C149.867 280.948 160.028 279.393 173.896 278.915" stroke="#D79D00" stroke-width="2.93412" stroke-miterlimit="10"/>
<defs>
<linearGradient id="paint0_linear_51_614" x1="349" y1="194" x2="403.5" y2="184.5" gradientUnits="userSpaceOnUse">
<stop stop-color="#EF0D0F"/>
<stop offset="1" stop-color="#D79D00"/>
</linearGradient>
<linearGradient id="paint1_linear_51_614" x1="356" y1="203" x2="396.5" y2="182" gradientUnits="userSpaceOnUse">
<stop stop-color="#EF0D0F"/>
<stop offset="1" stop-color="#D79D00"/>
</linearGradient>
<linearGradient id="paint2_linear_51_614" x1="365" y1="194.5" x2="390.5" y2="181" gradientUnits="userSpaceOnUse">
<stop stop-color="#EF0D0F"/>
<stop offset="1" stop-color="#D79D00"/>
</linearGradient>
<linearGradient id="paint3_linear_51_614" x1="259.5" y1="191" x2="284" y2="191.5" gradientUnits="userSpaceOnUse">
<stop stop-color="#EF0D0F"/>
<stop offset="1" stop-color="#D79D00"/>
</linearGradient>
<linearGradient id="paint4_linear_51_614" x1="369.744" y1="185.401" x2="365.355" y2="191.611" gradientUnits="userSpaceOnUse">
<stop offset="0.01" stop-color="white"/>
<stop offset="1" stop-color="white" stop-opacity="0"/>
</linearGradient>
<linearGradient id="paint5_linear_51_614" x1="280" y1="164" x2="324.5" y2="146.5" gradientUnits="userSpaceOnUse">
<stop stop-color="#EF0D0F"/>
<stop offset="1" stop-color="#D79D00"/>
</linearGradient>
<linearGradient id="paint6_linear_51_614" x1="330" y1="245" x2="359" y2="231.5" gradientUnits="userSpaceOnUse">
<stop stop-color="#EF0D0F"/>
<stop offset="1" stop-color="#D79D00"/>
</linearGradient>
<linearGradient id="paint7_linear_51_614" x1="272" y1="231" x2="298" y2="218.5" gradientUnits="userSpaceOnUse">
<stop stop-color="#EF0D0F"/>
<stop offset="1" stop-color="#D79D00"/>
</linearGradient>
<linearGradient id="paint8_linear_51_614" x1="298.5" y1="202.5" x2="344" y2="184" gradientUnits="userSpaceOnUse">
<stop stop-color="#EF0D0F"/>
<stop offset="1" stop-color="#D79D00"/>
</linearGradient>
<linearGradient id="paint9_linear_51_614" x1="156.517" y1="195.576" x2="141.143" y2="346.834" gradientUnits="userSpaceOnUse">
<stop stop-color="#D79D00"/>
<stop offset="0.95" stop-color="#010101"/>
</linearGradient>
<linearGradient id="paint10_linear_51_614" x1="224.557" y1="202.486" x2="209.19" y2="353.744" gradientUnits="userSpaceOnUse">
<stop stop-color="#D79D00"/>
<stop offset="0.95" stop-color="#010101"/>
</linearGradient>
<linearGradient id="paint11_linear_51_614" x1="147.292" y1="183.018" x2="206.629" y2="179.943" gradientUnits="userSpaceOnUse">
<stop stop-color="white" stop-opacity="0"/>
<stop offset="0.95" stop-color="#D79D00"/>
</linearGradient>
<linearGradient id="paint12_linear_51_614" x1="185.225" y1="294.015" x2="188.919" y2="170.43" gradientUnits="userSpaceOnUse">
<stop stop-color="#010101" stop-opacity="0"/>
<stop offset="0.95" stop-color="#010101"/>
</linearGradient>
<linearGradient id="paint13_linear_51_614" x1="185.78" y1="275.77" x2="188.025" y2="200.39" gradientUnits="userSpaceOnUse">
<stop stop-color="#010101" stop-opacity="0"/>
<stop offset="0.95" stop-color="#010101"/>
</linearGradient>
<linearGradient id="paint14_linear_51_614" x1="190.417" y1="123.146" x2="162.139" y2="118.228" gradientUnits="userSpaceOnUse">
<stop stop-color="#D79D00"/>
<stop offset="0.95" stop-color="#010101"/>
</linearGradient>
</defs>
</svg>
